<svg width="50" height="51" viewBox="0 0 50 51" fill="none" xmlns="http://www.w3.org/2000/svg">
<g clip-path="url(#clip0_1453_14212)">
<g clip-path="url(#clip1_1453_14212)">
<path d="M49.7753 28.5468C51.782 13.9219 40.1577 0.681686 25.3599 0.49707C21.4698 0.532573 17.9379 1.22843 14.6022 2.78109C2.73581 8.33139 -2.90447 21.6687 1.45283 33.8935C5.56806 45.4272 17.2674 52.2201 29.4146 50.116C40.1287 48.2604 48.2502 39.6568 49.7753 28.5468Z" fill="#5A6375"/>
<path d="M24.8759 32.7406C27.8123 32.7406 30.751 32.7406 33.6873 32.7406C34.5806 32.7406 35.285 33.0033 35.4908 33.9501C35.7183 34.9773 34.9848 35.6731 33.6413 35.6755C29.0153 35.6755 24.3869 35.6755 19.7585 35.6755C18.5917 35.6755 17.4249 35.6755 16.2582 35.6755C14.9655 35.6755 14.2054 35.0956 14.2223 34.1631C14.2368 33.2684 14.9485 32.7217 16.1855 32.7169C19.0904 32.7051 21.9783 32.7169 24.8759 32.7169V32.7406Z" fill="white"/>
<path d="M19.6079 18.3572C19.6268 19.473 19.1944 20.551 18.4048 21.3568C17.6151 22.1626 16.532 22.631 15.391 22.6601C13.0672 22.6909 11.0991 20.7667 11.0652 18.4448C11.0501 17.8823 11.1498 17.3225 11.3586 16.7982C11.5673 16.2739 11.8809 15.7955 12.281 15.3911C12.6811 14.9867 13.1596 14.6644 13.6887 14.4429C14.2177 14.2215 14.7866 14.1055 15.362 14.1016C17.7416 14.1134 19.6079 15.9714 19.6079 18.3572Z" fill="white"/>
<path d="M38.6888 18.3691C38.6888 20.717 36.7667 22.6626 34.4501 22.6602C33.3078 22.6515 32.2154 22.2018 31.4106 21.4092C30.6058 20.6166 30.1539 19.5452 30.1533 18.4283C30.1315 15.9999 32.0318 14.0874 34.4525 14.1016C35.0179 14.1078 35.5764 14.2233 36.0959 14.4415C36.6154 14.6597 37.0856 14.9762 37.4794 15.3729C37.8732 15.7696 38.1828 16.2386 38.3904 16.7528C38.598 17.2671 38.6994 17.8164 38.6888 18.3691Z" fill="white"/>
</g>
</g>
<defs>
<clipPath id="clip0_1453_14212">
<rect width="50" height="50" fill="white" transform="translate(0 0.49707)"/>
</clipPath>
<clipPath id="clip1_1453_14212">
<rect width="50" height="50" fill="white" transform="translate(0 0.49707)"/>
</clipPath>
</defs>
</svg>
