<svg width="50" height="51" viewBox="0 0 50 51" fill="none" xmlns="http://www.w3.org/2000/svg">
<g clip-path="url(#clip0_1453_14198)">
<path d="M0 26.4694C0.0290458 13.1425 8.91223 2.86288 21.3342 0.809315C32.5991 -1.04552 43.9342 5.51737 48.2645 16.4003C53.3645 29.2209 46.8122 44.0453 33.9255 48.8764C19.6568 54.2232 3.91151 45.8339 0.684998 31.1325C0.283197 29.3037 0.133127 27.411 0 26.4694Z" fill="#5A6375"/>
<path d="M25.0545 39.9073C19.8867 39.6707 15.8566 37.4681 13.0416 33.1599C12.4607 32.2703 12.5962 31.2908 13.2836 30.8437C13.9711 30.3966 14.8691 30.6876 15.5032 31.5984C20.5306 38.8119 29.9221 38.7362 34.8671 31.4423C35.5037 30.4959 36.3194 30.212 37.077 30.6663C37.8346 31.1205 37.9702 32.0503 37.3893 32.9659C34.5573 37.4184 30.4425 39.7109 25.0545 39.9073Z" fill="white"/>
<path d="M19.8477 18.371C19.866 19.485 19.4344 20.5611 18.6465 21.3662C17.8586 22.1713 16.7779 22.6405 15.6385 22.6721C13.3148 22.7029 11.3445 20.7794 11.3106 18.4585C11.2958 17.8962 11.3958 17.3366 11.6048 16.8125C11.8139 16.2884 12.1276 15.8103 12.5279 15.4061C12.9281 15.0018 13.4068 14.6797 13.9359 14.4584C14.465 14.2371 15.0339 14.1211 15.6094 14.1172C17.9888 14.129 19.8477 15.9862 19.8477 18.371Z" fill="white"/>
<path d="M38.934 18.3829C38.934 20.7298 37.0121 22.6746 34.6933 22.6722C33.5513 22.6628 32.4593 22.2132 31.6548 21.421C30.8502 20.6289 30.3981 19.5583 30.3969 18.4421C30.3751 16.0147 32.2752 14.1031 34.6957 14.1173C35.2612 14.1231 35.82 14.2383 36.3397 14.4563C36.8594 14.6742 37.3299 14.9906 37.7239 15.3872C38.1179 15.7837 38.4277 16.2526 38.6354 16.7668C38.8431 17.2809 38.9445 17.8302 38.934 18.3829Z" fill="white"/>
</g>
<defs>
<clipPath id="clip0_1453_14198">
<rect width="50" height="50" fill="white" transform="translate(0 0.49707)"/>
</clipPath>
</defs>
</svg>
