<svg width="50" height="51" viewBox="0 0 50 51" fill="none" xmlns="http://www.w3.org/2000/svg">
<g clip-path="url(#clip0_1453_14227)">
<g clip-path="url(#clip1_1453_14227)">
<path d="M25.6618 50.4967C12.2339 50.3997 1.5341 40.8966 0.157868 28.4049C-1.18202 16.2657 6.16921 4.99265 17.6637 1.57334C30.2412 -2.17725 43.393 4.14315 48.2171 16.2539C53.4773 29.465 46.7124 44.2733 33.1948 49.0698C32.0211 49.4908 30.8124 49.8122 29.5822 50.0305C28.0872 50.2955 26.5511 50.3973 25.6618 50.4967Z" fill="#5A6375"/>
<path d="M25.887 29.6826C31.0939 29.898 35.1402 32.1696 37.963 36.5141C38.5929 37.4867 38.4669 38.4498 37.7207 38.923C36.9744 39.3963 36.1506 39.1052 35.448 38.0499C30.6917 30.8989 21.0895 30.8232 16.2049 37.8984C15.478 38.942 14.6978 39.2306 13.9176 38.7337C13.1374 38.2368 13.0502 37.3139 13.7044 36.3319C16.5514 32.0537 20.5953 29.8648 25.887 29.6826Z" fill="white"/>
<path d="M30.7015 18.0546C30.6797 15.6528 32.6398 13.6864 35.0143 13.7077C37.35 13.7266 39.2448 15.6599 39.2424 18.0191C39.24 20.3783 37.304 22.3045 34.9901 22.3021C33.8465 22.2884 32.7547 21.8346 31.9517 21.0393C31.1488 20.2441 30.6995 19.1715 30.7015 18.0546Z" fill="white"/>
<path d="M20.1472 18.0738C20.0866 20.4756 18.1918 22.3332 15.8513 22.3024C15.2747 22.2859 14.7072 22.1584 14.1813 21.9273C13.6553 21.6962 13.1812 21.3659 12.7862 20.9555C12.3911 20.5451 12.0829 20.0625 11.8792 19.5356C11.6755 19.0086 11.5803 18.4475 11.599 17.8845C11.6644 15.5632 13.6682 13.6559 15.9821 13.7104C17.1244 13.7566 18.2021 14.2405 18.9817 15.0572C19.7613 15.8739 20.18 16.9577 20.1472 18.0738Z" fill="white"/>
</g>
</g>
<defs>
<clipPath id="clip0_1453_14227">
<rect width="50" height="50" fill="white" transform="translate(0 0.49707)"/>
</clipPath>
<clipPath id="clip1_1453_14227">
<rect width="50" height="50" fill="white" transform="translate(0 0.49707)"/>
</clipPath>
</defs>
</svg>
