<svg width="235" height="47" viewBox="0 0 235 47" fill="none" xmlns="http://www.w3.org/2000/svg">
<path d="M184.696 33.0218C182.225 32.8854 180.159 31.631 180.757 28.3011C180.891 27.5571 181.305 26.8131 181.761 26.2324C181.736 26.2351 178.317 26.5511 174.937 32.8138C172.403 37.5062 172.802 42.5428 175.954 42.6792C178.464 42.7886 181.757 40.1136 183.707 35.7845C184.174 34.7502 184.461 33.913 184.696 33.0218ZM130.781 32.9435C127.572 33.0596 126.285 30.2793 126.829 28.0742C127.018 27.3113 127.388 26.4242 128.169 25.8057C128.122 25.8084 128.074 25.8098 128.023 25.8125C124.782 26.1406 122.478 29.5164 120.962 32.6072C118.603 37.4211 118.956 42.3767 121.904 42.5266C124.392 42.6535 127.552 40.0744 129.623 35.7845C129.964 35.077 130.553 33.5862 130.781 32.9435ZM106.117 26.6038C104.52 26.651 98.5989 26.7874 95.1371 26.8954C97.5055 27.7893 101.44 30.4346 102.428 36.164C102.618 35.6468 104.926 29.5879 106.117 26.6038ZM231.07 31.5148C231.44 32.3048 232.527 34.2722 233.029 35.7481C233.658 37.5993 233.55 38.7768 233.462 39.4249C232.912 43.5285 230.197 45.8794 225.521 45.9564C222.891 45.9996 220.687 45.3352 219.626 43.515C219.106 42.6211 218.966 41.5436 219.79 40.4876C220.169 40.0015 220.656 39.587 220.874 39.4222C221.194 39.1819 221.458 39.0725 221.684 39.0847C222.293 39.1184 222.452 39.4398 222.653 40.678C222.895 42.1904 223.821 43.1126 225.104 43.087C225.543 43.0789 227.109 42.9587 227.583 41.4018C227.926 40.2729 227.603 38.901 226.673 37.2401C225.477 35.0986 224.932 33.3013 225.011 31.5716C223.903 32.8435 222.765 34.2506 221.719 35.609C217.541 41.0386 215.572 43.9161 212.37 45.1705C210.741 45.8092 209.105 45.874 207.958 45.5594C205.076 44.7735 204.911 42.1715 205.108 40.52C205.342 38.5472 206.325 35.5982 208.085 31.8268C202.679 36.912 197.502 43.4097 196.574 44.5561C195.678 45.6593 194.644 45.2407 194.04 44.8626C193.307 44.4049 193.032 44.2226 192.349 43.7473C191.552 43.195 191.364 42.9168 191.722 41.5571C192.56 38.3731 194.421 33.2513 196.141 29.4705C194.214 30.8262 192.456 31.5851 190.293 32.0658C190.042 33.5579 189.474 35.1175 188.557 36.7068C185.008 42.8642 178.724 46.7517 172.567 45.4203C169.512 44.7573 167.779 42.5266 167.5 39.5762C165.309 42.4037 163.461 43.5852 161.655 44.4184C159.399 45.4595 157.442 45.1624 156.964 45.0571C153.894 44.3779 153.707 41.8042 154.009 39.7423C154.079 39.271 154.224 38.6701 154.427 37.968C151.353 41.684 148.398 43.8661 146.01 44.7884C144.732 45.2799 143.004 45.6445 141.326 45.3339C139.154 44.9329 137.915 43.3179 138.113 40.4566C138.336 37.2118 140.727 33.0326 145.833 27.4153C145.141 27.098 144.712 26.4755 144.523 25.8408C143.05 27.6651 139.638 30.0362 136.467 31.392C136.205 33.227 135.568 35.0121 134.569 36.7986C131.187 42.8345 124.504 46.8462 118.465 45.2178C113.209 43.7999 111.929 37.6965 115.556 31.604C116.868 29.3989 118.588 27.5355 120.493 26.1014C116.824 26.2419 112.98 26.3756 112.98 26.3756C112.98 26.3756 108.95 35.4375 105.254 44.702C104.979 45.3906 104.305 46.2548 102.992 45.4257C102.348 45.0179 101.97 44.7398 101.059 44.0308C100.335 43.4678 100.289 43.114 100.286 42.3457C100.306 36.0721 97.7613 30.3671 92.4758 28.6495C90.4307 33.4984 88.171 39.3102 85.9222 45.0004C85.4491 46.1967 84.4327 46.0009 83.349 45.2731C82.6613 44.81 82.1813 44.467 81.5486 43.9701C80.5817 43.2153 80.4016 42.9249 80.9407 41.3923C81.4757 39.8719 83.7519 33.7212 86.1327 27.3707C85.5468 27.3883 83.6405 27.4599 83.6405 27.4599C83.0051 27.4801 82.6461 27.3694 82.4522 26.8792C82.1895 26.2068 82.0286 25.7801 81.8471 25.2656C81.6105 24.6013 81.6614 23.9923 82.8153 23.9045C83.2541 23.8707 85.368 23.8032 87.5204 23.7155C91.3948 13.9635 96.4932 2.77757 97.3817 0.978957C97.9882 -0.248474 99.0101 -0.162054 99.9578 0.371318C100.65 0.760207 101.572 1.29088 102.708 2.01329C103.77 2.6898 104.188 3.18536 103.406 4.82329C103.264 5.119 98.7282 14.4105 94.6516 23.5656C96.9155 23.4819 105.242 23.2091 107.464 23.1794C111.379 13.6908 115.477 4.72336 116.088 3.39871C116.477 2.55342 116.854 1.85801 118.331 2.61418C119.972 3.45812 120.325 3.60801 121.362 4.21835C122.331 4.79088 122.655 5.24053 122.058 6.47336C121.765 7.0783 118.139 14.5752 114.421 23.0254C116.428 22.9755 124.329 22.7932 126.693 22.7257C127.429 22.7041 130.376 22.5852 131.796 22.9647C134.025 23.5615 135.386 24.9618 136.13 26.9737C136.267 27.3248 136.473 28.1107 136.553 28.5496C140.34 26.6362 143.997 23.4373 146.035 19.9103C146.445 19.1987 146.895 19.1312 147.747 19.4606C148.418 19.7185 148.28 20.3194 148.142 20.7664C147.82 21.7967 147.795 22.8756 148.23 23.5993C148.636 24.2758 149.143 24.9334 152.004 25.2629C152.659 25.3385 152.963 25.6045 153.11 26.0501C153.258 26.5025 153.331 26.8522 152.617 27.6435C148.865 31.7998 146.544 34.6016 145.256 37.8842C143.701 41.8514 145.45 41.6989 146.292 41.5004C148.615 40.9562 153.821 35.9641 157.521 29.6271C158.846 26.4174 160.376 22.9309 161.809 19.7482C159.799 19.8671 158.584 19.9494 158.331 19.967C157.472 20.0305 157.309 19.597 157.151 19.2297C156.991 18.8638 156.855 18.4911 156.68 17.9901C156.506 17.4892 156.506 16.9612 157.593 16.8559C157.91 16.8262 160.141 16.6466 163.323 16.4116C164.921 12.9265 166.214 10.1921 166.674 9.23744C167.303 7.9263 168.103 7.62788 169.346 8.34624C170.496 9.00924 170.691 9.13482 171.645 9.73976C172.541 10.3096 172.944 10.6769 172.259 12.1528C171.645 13.4734 171.062 14.7197 170.507 15.9053C176.908 15.4759 184.142 15.0546 188.327 15.0114C189.591 14.9979 189.824 15.1666 190.086 15.7365C190.36 16.3279 190.552 16.7479 190.808 17.3514C191.094 18.0226 190.861 18.5681 190.06 18.5883C181.735 18.7909 174.399 19.096 168.878 19.3675C165.799 25.9138 163.49 30.8788 160.85 37.8829C159.445 41.6138 161.582 41.0804 161.795 41.0129C164.624 40.1123 167.46 35.3335 170.834 30.4116C174.7 24.77 180.36 22.1977 185.213 23.3779C187.025 23.8194 188.275 24.5526 189.217 26.0231C189.513 26.4215 189.782 26.9643 189.95 27.4585C190.149 28.0864 190.315 28.798 190.367 29.5501C193.208 28.7899 195.672 27.3991 198.443 24.6877C199.036 24.1084 199.668 23.7708 200.843 24.5756C201.584 25.0833 202.06 25.3925 202.741 25.9246C203.68 26.6591 204.123 27.0089 203.213 28.6549C202.698 29.5825 201.209 32.375 198.985 37.9572C203.954 31.9591 210.1 26.1501 211.412 25.2562C211.759 25.0185 212.401 24.6701 213.51 25.352C214.247 25.8057 214.606 26.0258 215.336 26.5606C216.283 27.2506 216.621 27.7718 215.939 29.1383C215.287 30.444 213.064 34.5314 211.865 38.4635C210.902 41.6246 212.004 41.8433 212.833 41.5976C213.958 41.2614 215.44 39.7085 218.706 35.5104C221.56 31.8416 224.093 28.8885 227.14 26.0042C227.964 25.2251 229.171 24.153 229.978 23.5291C230.593 23.0525 231.285 22.6231 231.823 22.5852C232.204 22.5596 232.432 22.6528 232.883 23.0727C233.248 23.4103 233.314 23.4764 233.552 23.706C234.047 24.1773 234.305 24.3839 234.336 24.7498C234.385 25.3615 234.08 25.5357 233.381 26.092L233.047 26.3661C231.597 27.5665 229.956 29.145 231.07 31.5148ZM34.3932 19.6672C36.5277 19.3256 38.1341 17.3204 37.9732 15.195C37.8288 13.2816 36.331 11.8922 34.4124 11.8922C34.2075 11.8922 33.9984 11.9084 33.7894 11.9421C31.6562 12.2824 30.0498 14.2889 30.2093 16.4143C30.3524 18.3277 31.8501 19.7172 33.7701 19.7172C33.975 19.7172 34.1841 19.701 34.3932 19.6672ZM72.2264 29.854C73.1356 28.1931 72.7463 27.7407 71.7176 27.0345C70.8428 26.4323 70.664 26.2824 70.0713 25.9003C68.8981 25.1427 68.0742 25.4357 67.1638 26.2608C63.9853 29.141 59.3174 33.8941 55.8556 37.9518C57.9145 32.4465 59.0368 30.0538 59.7905 28.3592C60.4383 26.8968 60.2705 26.489 59.4508 25.9381C58.88 25.5559 58.2666 25.1603 57.2818 24.5418C56.4112 23.9936 55.7029 24.1894 55.0978 24.7309C52.9673 26.6362 46.7604 32.7315 42.549 37.4481C44.612 32.6477 46.4124 28.5374 47.0492 27.1803C47.6516 25.8949 47.7589 25.2791 46.7163 24.5324C45.9296 23.9707 45.2268 23.5318 44.4828 23.0849C43.1294 22.272 42.6137 22.8216 42.0814 23.656C41.882 23.9666 41.578 24.4743 41.1833 25.1022C35.2926 34.9109 30.4968 40.3418 28.5891 40.9724C27.7708 41.2425 27.3802 41.0521 27.1904 40.8738C26.4931 40.2162 27.1148 38.3433 27.394 37.5899C28.3993 34.8771 30.3634 30.5561 32.3824 26.4161C33.1526 24.8362 32.9146 24.3839 31.8226 23.6128C31.1377 23.1294 30.5023 22.75 29.6812 22.2517C28.4585 21.5145 27.7213 21.8993 27.0391 23.3063C25.4066 26.6713 21.2557 35.1809 20.4993 39.8449C19.9285 43.3584 21.4648 44.9139 23.5045 45.365C25.0394 45.7039 26.7957 45.2785 27.7681 44.8221C29.9342 43.808 32.9545 41.2641 37.0187 35.6009C36.232 37.6142 35.4013 39.9124 34.9557 41.3694C34.4537 43.0154 34.7439 43.4435 35.741 44.0741C36.1962 44.3617 36.4081 44.5062 37.0531 44.9004C37.7188 45.3069 38.7365 45.7241 39.6333 44.6682C40.8271 43.2639 47.2569 35.4942 52.3223 30.7465C51.1629 33.7942 49.4313 38.4149 48.6171 41.3505C48.254 42.6562 48.5634 43.0964 49.6582 43.8188L51.3018 44.8451C51.6855 45.0719 52.7707 45.581 53.7224 44.4629C54.6439 43.38 59.9954 36.6541 64.336 32.4276C62.698 36.1315 61.7696 38.9861 61.456 41.1506C61.3501 41.8758 60.877 45.6121 64.8078 46.2008C66.0497 46.3858 68.3122 46.2021 69.9681 44.6304C70.4 44.2212 70.5898 43.7324 70.5389 43.4435C70.4729 43.0748 70.1758 43.0438 69.7343 43.0154C69.407 42.9965 68.9944 42.9695 68.5749 42.7575C67.1294 42.0243 67.8308 40.2473 68.1636 39.1765C69.4235 35.1242 71.0203 32.059 72.2264 29.854ZM26.7902 8.1761C23.862 14.6657 11.7465 42.5172 10.6022 45.0382C10.1126 46.1171 9.34241 46.5924 7.96706 45.8511C6.60958 45.1205 5.87239 44.6776 4.79549 44.0025C3.46414 43.1666 3.9015 42.1175 4.29486 41.2816C8.08259 33.2405 10.4798 27.3802 12.5346 23.0025C16.0844 15.4367 17.8187 11.9448 19.3633 8.71352C13.4341 9.32521 5.67984 10.0463 4.01153 10.2799C1.89624 10.577 1.70369 9.84373 1.21818 8.62981C0.824833 7.64813 0.936237 8.03567 0.723057 7.42803C0.333831 6.31403 -0.0430169 5.18517 2.09704 4.96507C6.75949 4.48571 28.845 2.56962 45.865 2.25095C47.2899 2.22259 47.8359 2.2604 48.3131 3.26908C48.756 4.20619 48.8124 4.18729 49.2676 5.25808C49.7242 6.33023 48.9637 6.8609 47.9528 6.90141C40.7005 7.19443 33.6683 7.68594 26.7902 8.1761Z" fill="#C11129"/>
</svg>
