<svg width="296" height="164" viewBox="0 0 296 164" fill="none" xmlns="http://www.w3.org/2000/svg">
<g clip-path="url(#clip0_1523_9593)">
<path d="M227.305 81.354C227.305 125.717 191.685 161.631 147.83 161.631C103.908 161.631 68.3511 125.65 68.3511 81.354C68.3511 36.9899 103.974 1.08008 147.83 1.08008C191.685 1.08008 227.305 36.9905 227.305 81.354Z" fill="white"/>
<path d="M155.797 35.7739C155.129 35.6396 151.78 35.0986 147.829 35.0986C143.878 35.0986 140.531 35.6396 139.862 35.7739C139.459 35.841 139.326 35.4343 139.592 35.2329C139.862 35.0314 147.829 28.8761 147.829 28.8761C147.829 28.8761 155.797 35.0308 156.062 35.2329C156.332 35.4343 156.199 35.841 155.797 35.7739ZM142.002 75.5393C142.002 75.5393 141.603 75.6736 141.467 76.0804C143.141 77.3645 144.278 80.3401 147.764 80.3401C151.245 80.3401 152.383 77.3651 154.057 76.0804C153.923 75.6736 153.521 75.5393 153.521 75.5393C153.521 75.5393 151.313 76.0804 147.764 76.0804C144.212 76.0797 142.002 75.5393 142.002 75.5393ZM147.763 70.6017C146.824 70.6017 146.555 70.2659 145.952 70.2659C145.35 70.2659 144.079 70.8069 143.813 71.2099C143.813 71.4151 143.946 71.6172 144.079 71.818C145.487 72.0233 146.156 72.8336 147.763 72.8336C149.367 72.8336 150.039 72.0246 151.444 71.818C151.646 71.6172 151.713 71.4151 151.713 71.2099C151.444 70.7398 150.238 70.2659 149.57 70.2659C148.968 70.1988 148.764 70.6017 147.763 70.6017ZM227.172 85.7511C227.038 87.6427 226.905 89.6067 226.702 91.4318C217.729 92.9219 214.515 84.8704 205.277 85.2106C205.812 87.1746 206.283 89.2012 206.615 91.2316C214.25 91.2316 217.262 98.398 225.768 97.3153C225.299 99.4801 224.762 101.645 224.16 103.81C217.464 104.485 215.121 97.7898 207.354 97.9241C207.419 99.0765 207.419 100.155 207.419 101.306C207.419 101.918 207.419 102.593 207.354 103.201C213.983 103.135 216.122 109.288 222.42 109.017C221.615 111.182 220.746 113.279 219.807 115.373C215.254 115.105 213.713 109.289 206.885 109.76C206.685 111.25 206.415 112.738 206.079 114.225C212.04 113.82 213.311 119.363 217.597 119.77C216.526 121.801 215.321 123.761 214.116 125.653C211.569 124.301 209.36 120.177 204.608 119.905C205.077 118.353 205.543 116.796 205.879 115.24C201.592 115.24 196.773 113.549 192.691 109.828C194.029 102.186 182.31 94.4772 182.31 88.8667C182.31 82.8457 185.322 79.464 185.322 71.2827C185.322 65.1959 182.378 58.6332 178.028 54.1701C177.155 53.2933 176.283 52.6173 175.282 51.9382C179.298 57.0101 182.443 62.964 182.443 69.9276C182.443 77.6388 178.896 81.6959 178.896 88.7951C178.896 95.8981 189.207 102.053 189.207 109.357C189.207 112.265 188.271 115.039 185.323 120.581C189.946 125.25 195.969 127.75 199.853 127.75C201.128 127.75 201.797 127.344 202.266 126.398C202.666 125.518 203.002 124.642 203.338 123.76C207.488 123.895 209.428 127.75 211.704 129.307C210.434 130.998 209.096 132.689 207.688 134.311C206.151 132.554 204.073 129.643 200.991 128.833C200.456 129.915 199.854 130.931 199.252 132.014C201.865 132.756 203.672 135.396 205.079 137.152C203.604 138.705 201.998 140.195 200.389 141.683C199.388 140.127 197.781 138.097 196.04 136.946C195.367 137.828 194.698 138.704 194.029 139.585C195.57 140.601 196.841 142.494 197.714 143.982C195.836 145.533 193.896 146.956 191.886 148.307C190.881 140.126 179.902 134.579 182.847 125.11C181.842 126.801 180.704 128.898 180.704 131.404C180.704 138.234 187.935 143.71 188.472 150.473C187.001 151.355 185.46 152.231 183.853 153.045C183.583 145.536 175.952 137.354 175.952 131.266C175.952 124.436 184.858 117.539 184.858 109.423C184.858 101.306 174.61 95.6961 174.61 88.5924C174.61 81.4938 178.963 77.4329 178.963 68.3039C178.963 61.6082 175.817 54.9157 170.996 50.5862C170.123 49.8438 169.322 49.2349 168.251 48.6939C172.803 54.2366 175.481 59.2414 175.481 66.8861C175.481 75.4747 170.459 80.2071 170.459 88.5943C170.459 96.9802 180.504 101.647 180.504 109.425C180.504 117.199 171.129 123.829 171.129 131.876C171.129 139.18 179.366 146.485 179.499 155.141C177.692 155.953 175.885 156.696 174.008 157.305C175.08 148.582 165.775 139.52 165.775 132.35C165.775 124.572 175.482 117.812 175.482 109.424C175.482 101.037 165.639 97.1145 165.639 88.4593C165.639 79.8029 171.733 74.9996 171.733 65.4632C171.733 58.0244 168.119 51.3281 162.761 47.2039C162.627 47.1367 162.561 47.0024 162.428 46.9353C161.959 46.5285 161.489 47.0024 161.893 47.4763C165.64 52.2093 167.65 57.0089 167.65 64.1119C167.65 72.8355 160.688 79.9372 160.688 88.3916C160.688 98.398 170.059 101.238 170.059 109.423C170.059 117.604 160.014 124.166 160.014 132.889C160.014 140.936 169.522 149.93 167.848 159.198C165.975 159.668 164.035 160.143 162.091 160.482C163.898 148.915 154.593 140.532 154.593 132.955C154.593 124.774 164.969 117.402 164.969 109.423C164.969 101.845 157.538 99.4123 156.533 91.6333C156.4 90.5519 155.528 89.8081 154.39 90.0134C152.852 90.282 150.909 91.2969 147.897 91.2969C144.815 91.2969 142.942 90.2813 141.401 90.0134C140.264 89.8081 139.394 90.6222 139.257 91.6333C138.256 99.4123 130.821 101.845 130.821 109.423C130.821 117.469 141.202 124.773 141.202 132.955C141.202 140.532 131.893 148.848 133.704 160.482C131.76 160.143 129.82 159.668 127.942 159.198C126.335 149.865 135.776 140.936 135.776 132.889C135.776 124.166 125.732 117.604 125.732 109.423C125.732 101.238 135.107 98.398 135.107 88.3916C135.107 79.9372 128.144 72.8336 128.144 64.1119C128.144 57.0089 130.151 52.2093 133.902 47.4763C134.238 47.0024 133.836 46.5951 133.366 46.9353C133.233 47.0024 133.167 47.1367 133.03 47.2039C127.742 51.3281 124.057 58.0244 124.057 65.4632C124.057 74.9996 130.151 79.8029 130.151 88.4593C130.151 97.1145 120.31 101.037 120.31 109.424C120.31 117.812 130.019 124.57 130.019 132.35C130.019 139.519 120.71 148.516 121.782 157.305C119.908 156.63 118.101 155.953 116.294 155.141C116.427 146.485 124.66 139.181 124.66 131.876C124.66 123.829 115.289 117.271 115.289 109.425C115.289 101.579 125.333 96.9802 125.333 88.5943C125.333 80.2077 120.311 75.4747 120.311 66.8861C120.311 59.242 122.99 54.2366 127.543 48.6939C126.537 49.2349 125.666 49.8438 124.798 50.5862C119.976 54.9157 116.831 61.6792 116.831 68.3039C116.831 77.4329 121.18 81.4938 121.18 88.5924C121.18 95.6961 110.937 101.305 110.937 109.423C110.937 117.539 119.842 124.369 119.842 131.266C119.842 137.422 112.207 145.607 111.941 153.045C110.4 152.232 108.859 151.422 107.323 150.473C107.925 143.643 115.157 138.235 115.157 131.404C115.157 128.899 114.019 126.801 113.013 125.11C115.959 134.579 104.977 140.193 103.975 148.307C101.964 146.956 100.024 145.533 98.1471 143.982C99.0202 142.492 100.357 140.6 101.831 139.586C101.163 138.704 100.423 137.894 99.8211 136.946C98.0141 138.029 96.473 140.059 95.4688 141.683C93.8644 140.262 92.2575 138.705 90.7829 137.152C92.191 135.396 93.9974 132.689 96.6104 132.014C96.0045 130.998 95.4017 129.915 94.8667 128.833C91.789 129.643 89.711 132.554 88.1749 134.311C86.7668 132.687 85.4296 131.064 84.1545 129.307C86.5009 127.75 88.375 123.962 92.5912 123.76C92.9267 124.642 93.33 125.518 93.6625 126.399C94.1316 127.411 94.7996 127.75 96.0754 127.75C99.9553 127.75 105.982 125.182 110.602 120.581C107.59 115.039 106.721 112.265 106.721 109.357C106.721 102.053 117.031 95.8981 117.031 88.7951C117.031 81.6959 113.484 77.6388 113.484 69.9276C113.484 62.9627 116.562 57.0095 120.645 51.9382C119.644 52.5463 118.772 53.2933 117.9 54.1701C113.484 58.6332 110.602 65.263 110.602 71.2827C110.602 79.464 113.617 82.7786 113.617 88.8667C113.617 94.4759 101.9 102.186 103.238 109.828C99.1544 113.616 94.2652 115.24 89.9826 115.24C90.3815 116.796 90.7848 118.353 91.2533 119.905C86.4313 120.178 84.2209 124.301 81.7459 125.653C80.4752 123.761 79.3362 121.801 78.2642 119.77C82.5507 119.297 83.822 113.751 89.7787 114.225C89.4463 112.738 89.1766 111.25 88.9765 109.76C82.0809 109.29 80.541 115.172 76.0539 115.373C75.115 113.279 74.2469 111.182 73.4409 109.017C79.7338 109.29 81.8776 103.135 88.4402 103.201C88.4402 102.593 88.4402 101.985 88.4402 101.306C88.4402 100.156 88.5061 99.0765 88.5061 97.9241C80.7386 97.7233 78.3953 104.485 71.6998 103.81C71.0976 101.712 70.5626 99.5472 70.0922 97.3153C78.5289 98.398 81.6105 91.1645 89.2406 91.2316C89.5768 89.2012 90.0459 87.1746 90.5828 85.2106C81.3408 84.8033 78.13 92.9219 69.1577 91.4318C68.888 89.5401 68.7544 87.644 68.622 85.7511C79.0639 86.9003 83.0148 78.2451 92.5228 79.3278C93.3946 77.0287 94.4666 74.7969 95.6721 72.6315C83.7549 70.5339 79.6667 80.6119 68.5562 79.0554C69.4882 35.7739 104.642 1.08105 147.763 1.08105C190.949 1.08105 226.033 35.7739 227.237 79.1232C216.121 80.6797 212.039 70.6023 200.122 72.6999C201.326 74.864 202.331 77.0959 203.267 79.3949C212.774 78.2451 216.659 86.968 227.172 85.7511ZM113.614 52.0737C107.787 49.6366 100.692 50.2448 94.5983 54.1675C93.66 48.4867 90.5822 43.4142 86.228 40.3726C85.6259 39.9659 85.0238 40.3726 85.0238 41.048C85.9627 53.0848 78.9968 63.5024 70.4278 72.6993C79.2672 75.405 86.7649 63.9092 98.1458 67.8984C102.366 61.7438 107.588 56.3316 113.614 52.0737ZM147.763 44.8364C140.395 44.8364 134.168 49.0278 132.564 54.5071C132.428 54.9138 132.631 55.1824 133.1 54.9816C134.438 54.3734 135.911 54.1004 137.585 54.1004C140.598 54.1004 143.276 55.2496 144.813 57.1463C145.486 59.4454 145.552 62.8271 144.747 64.7194C143.542 64.447 143.073 63.5024 141.869 63.5024C140.664 63.5024 139.725 64.3799 137.652 64.3799C135.574 64.3799 135.376 63.3681 134.033 63.3681C132.426 63.3681 132.161 64.9881 132.161 66.8842C132.161 75.1998 139.725 86.6323 147.763 86.6323C155.797 86.6323 163.36 75.1998 163.36 66.8842C163.36 64.9881 162.961 63.4359 161.354 63.23C160.548 63.8376 159.746 64.3792 157.873 64.3792C155.795 64.3792 155.26 63.5018 154.055 63.5018C152.58 63.5018 152.713 66.6111 150.974 66.8164C149.836 64.0435 149.769 60.3887 150.707 57.2122C152.248 55.2496 154.924 54.1669 157.939 54.1669C159.546 54.1669 161.083 54.4393 162.424 55.0481C162.894 55.2496 163.092 54.981 162.96 54.5736C161.354 49.0278 155.128 44.8364 147.763 44.8364ZM159.547 56.739C157.736 56.739 155.73 57.28 154.388 58.7656C154.255 59.173 154.255 59.7811 154.458 60.1207C157.669 59.0387 160.481 58.9715 161.889 60.5281C162.625 59.8489 162.824 59.2401 162.824 58.5648C162.825 57.4821 161.687 56.739 159.547 56.739ZM133.702 60.5274C135.24 58.9709 138.521 59.0374 141.869 60.2544C142.002 58.5635 138.99 56.6712 135.978 56.6712C133.769 56.6712 132.697 57.4143 132.697 58.497C132.764 59.2395 132.963 59.8483 133.702 60.5274ZM184.587 32.3922C178.763 32.7995 173.675 34.8255 169.588 38.2072C171.332 33.2024 173.542 28.8761 176.354 24.681C168.919 25.4944 162.759 28.2008 158.205 32.9332L154.658 23.5311L162.492 16.499L151.979 15.7566L147.762 5.8806L143.541 15.7566L133.029 16.499L140.863 23.5311L137.315 32.9332C132.763 28.2673 126.602 25.4944 119.171 24.681C121.983 28.8761 124.193 33.2734 125.933 38.2072C121.846 34.8255 116.757 32.7989 110.934 32.3922C114.415 36.9231 117.497 41.7942 119.839 47.0011C120.105 47.6093 120.642 47.8108 121.244 47.475C129.214 43.4851 138.187 41.1823 147.761 41.1823C157.269 41.1823 166.242 43.4141 174.274 47.475C174.877 47.8108 175.412 47.6093 175.678 47.0011C177.957 41.7949 181.105 36.9237 184.587 32.3922ZM197.31 67.8984C208.758 63.9092 216.259 75.3372 225.095 72.6993C216.526 63.5018 209.562 53.0855 210.499 41.048C210.565 40.3726 209.896 39.9659 209.362 40.3726C205.011 43.4148 201.929 48.4874 200.991 54.1675C194.967 50.2448 187.869 49.7037 181.978 52.0737C188.001 56.3316 193.156 61.7438 197.31 67.8984Z" fill="#00643C"/>
<path d="M195.835 163.591H194.63V155.883H191.818V154.801H198.714V155.883H195.835V163.591Z" fill="#00643C"/>
<path d="M204.404 161.564H204.475L207.084 154.801H208.961V163.591H207.752V156.219H207.686L204.807 163.591H204.006L201.06 156.219V163.591H199.852V154.801H201.796L204.404 161.564Z" fill="#00643C"/>
</g>
<defs>
<clipPath id="clip0_1523_9593">
<rect width="159.656" height="164" fill="white" transform="translate(68)"/>
</clipPath>
</defs>
</svg>
