<svg width="211" height="81" viewBox="0 0 211 81" fill="none" xmlns="http://www.w3.org/2000/svg">
<g clip-path="url(#clip0_1453_14114)">
<g clip-path="url(#clip1_1453_14114)">
<path d="M207.605 44.8261C207.512 45.9392 207.404 46.8656 207.354 47.7992C207.261 49.6089 207.225 51.3468 209.056 52.5677C210.334 53.4223 210.492 55.0022 210.729 56.4097C211.144 59.387 210.854 62.4199 209.882 65.2644C208.92 68.3524 206.744 71.1963 202.794 71.2322C199.426 71.2322 196.165 72.015 192.855 72.4459C190.779 72.7116 190.506 72.5033 190.837 70.3776C191.387 66.8025 190.619 63.1493 188.675 60.0986C186.732 57.0478 183.746 54.8077 180.273 53.7957C169.012 50.7795 159.791 60.0723 161.185 70.0473C161.716 73.8463 161.673 73.9684 158.082 74.1048C135.712 75.0025 113.335 74.7009 90.9572 74.823C90.6827 74.8622 90.4028 74.8343 90.1414 74.7418C89.88 74.6492 89.6449 74.4948 89.4563 74.2915C91.6107 66.7151 90.3683 59.8568 83.1294 55.3971C77.808 52.1224 72.1849 52.4097 66.9137 55.9286C61.3194 59.6629 59.5958 65.0849 61.1686 73.8822C57.1326 74.4998 53.2259 74.3275 49.4269 72.6757C48.3138 72.1874 48.4359 71.5626 48.9242 70.708C49.5705 69.5805 50.9135 70.0832 51.7609 69.4656C51.251 68.0293 51.6747 66.119 49.1971 65.8246C48.0337 65.6882 48.3856 64.0005 48.3784 62.952C48.3242 62.4099 48.459 61.8657 48.76 61.4116C49.061 60.9575 49.5097 60.6213 50.0302 60.4601C50.26 60.3883 50.5113 60.417 50.7483 60.3523C54.6119 59.3757 54.6119 59.3757 56.2565 55.0812C54.5114 54.3631 52.8094 56.2302 50.9135 55.0812C52.4144 53.0919 54.5042 52.0362 56.6586 51.0883C62.0519 48.7184 67.7971 47.634 73.5709 46.6932C79.826 45.6735 86.16 45.4006 92.4581 44.7901C93.6431 44.6752 94.6126 44.4598 95.4025 45.9679C96.1207 47.318 99.3954 47.0451 101.622 45.8171C106.017 43.3898 110.426 40.9912 114.8 38.5279C116.236 37.7164 117.924 37.2712 118.994 35.8708C119.489 35.2173 120.272 35.3394 120.954 35.1527C126.34 33.8241 131.827 33.6445 137.335 33.6445C142.484 33.6445 147.626 33.6445 152.775 33.6445C159.447 33.6445 165.702 35.7128 171.928 37.7452C177.824 39.6698 183.677 41.7453 189.573 43.6699C193.932 45.1062 198.348 45.9176 202.959 44.7112C204.489 44.3261 206.096 44.3659 207.605 44.8261ZM150.606 46.1474C149.113 45.9535 148.998 46.5999 149.522 47.7992C151.253 51.7634 150.865 55.6988 149.306 59.6198C148.236 62.3344 146.592 64.6469 144.998 67.0239C144.572 67.735 143.957 68.3133 143.222 68.6939C142.486 69.0745 141.658 69.2423 140.832 69.1784C133.78 69.1137 126.728 69.1783 119.683 69.5805C114.907 69.8462 110.117 69.7241 105.32 69.8246C103.884 69.8246 103.23 69.4441 102.943 67.9072C101.94 62.3756 101.957 56.7071 102.993 51.1816C103.589 47.8423 103.963 47.5909 107.388 47.3396C118.843 46.4706 130.369 46.9805 141.787 46.1259C143.798 45.9679 146.369 46.8871 147.683 45.6304C149.17 44.1941 148.172 41.5514 148.222 39.4472C148.294 36.8978 148.186 36.9983 145.795 36.668C139.813 35.8421 133.859 36.6249 127.891 36.7829C125.379 36.8657 122.905 37.4262 120.602 38.4346C115.001 40.8404 109.65 43.7489 104.236 46.5281C103.636 46.7901 103.11 47.1936 102.701 47.7039C102.292 48.2142 102.013 48.8162 101.887 49.4581C100.623 55.7275 100.322 62.0041 101.737 68.2879C102.376 71.103 102.39 71.1604 105.277 71.0886C111.13 70.9593 116.983 70.7224 122.836 70.6075C129.055 70.4926 135.274 70.471 141.507 70.4136C142.714 70.4136 143.899 70.471 144.775 69.3722C150.262 62.4924 154.262 55.2463 150.52 46.0828C151.754 45.6511 153.033 45.3642 154.333 45.2282C157.522 44.6465 160.797 44.4598 164.244 43.3036C160.143 39.598 156 37.1204 150.549 37.0701C150.273 40.0906 150.293 43.1307 150.606 46.1474Z" fill="#41434B"/>
<path d="M63.5169 68.0365C63.5467 64.9067 64.8003 61.9129 67.0094 59.6956C69.2186 57.4784 72.2079 56.214 75.3376 56.1729C78.5876 56.222 81.6851 57.5599 83.9489 59.8923C86.2128 62.2248 87.4575 65.361 87.4096 68.6111C87.3213 71.7485 86.0059 74.7261 83.7459 76.9042C81.4859 79.0822 78.4618 80.2869 75.3232 80.2593C68.5439 80.2522 63.4523 74.7799 63.5169 68.0365ZM82.1887 72.1516C80.5226 71.498 78.7631 69.7601 77.3986 70.4495C75.79 71.2682 76.8816 73.6309 76.7667 75.3185C76.7667 75.4837 77.018 75.6632 77.2406 75.9505C78.2776 75.6914 79.2496 75.2201 80.0951 74.5662C80.9406 73.9123 81.6412 73.0901 82.1527 72.1516H82.1887ZM73.2765 67.1245C71.912 65.4441 71.2872 63.7923 69.7504 62.7582C68.981 63.5982 68.3876 64.5838 68.0053 65.6569C67.6229 66.7299 67.4593 67.8688 67.5241 69.0061L73.2765 67.1245ZM73.456 75.8931C73.5753 75.4748 73.6381 75.0425 73.6427 74.6076C73.4129 73.1713 74.9785 71.1749 73.456 70.349C72.2998 69.7242 70.6265 71.0672 69.2692 71.7853C69.0825 71.8787 68.9963 72.1516 68.8096 72.4173C69.657 74.2198 71.2585 75.1534 73.4201 75.8859L73.456 75.8931ZM81.0971 62.8587C80.0342 64.4099 78.799 65.6092 78.0952 67.3615C79.9839 67.9432 81.5136 68.7403 83.5244 68.7978C83.1222 66.55 82.914 64.5679 81.0612 62.8515L81.0971 62.8587ZM78.1599 60.8336C76.4378 60.288 74.5892 60.288 72.8671 60.8336C73.8079 62.5284 74.2029 64.2448 75.9264 65.4872C76.6948 63.936 77.6715 62.751 78.124 60.8264L78.1599 60.8336Z" fill="#41434B"/>
<path d="M187.95 68.331C187.963 69.9122 187.658 71.4798 187.053 72.9408C186.448 74.4018 185.556 75.7263 184.429 76.8356C183.302 77.945 181.964 78.8166 180.494 79.3986C179.024 79.9805 177.451 80.2611 175.871 80.2235C174.291 80.1945 172.732 79.8542 171.284 79.2222C169.836 78.5901 168.527 77.6787 167.432 76.54C166.337 75.4013 165.477 74.0578 164.901 72.5864C164.326 71.1149 164.046 69.5444 164.079 67.9647C164.185 64.8414 165.484 61.8776 167.71 59.6839C169.936 57.4902 172.918 56.2336 176.043 56.1729C177.623 56.1879 179.186 56.5143 180.64 57.1337C182.094 57.7531 183.412 58.6533 184.518 59.7826C185.624 60.9119 186.496 62.2482 187.085 63.715C187.674 65.1819 187.968 66.7504 187.95 68.331ZM182.858 72.1658C181.249 71.4477 179.986 70.8804 178.678 70.349C177.795 69.9899 177.307 70.507 177.242 71.3041C177.163 72.805 177.242 74.3131 177.242 75.972C178.407 75.8167 179.519 75.3918 180.49 74.731C181.461 74.0702 182.265 73.1918 182.837 72.1658H182.858ZM181.752 62.7008C180.567 64.3022 179.555 65.6954 178.42 67.2322C179.369 67.6382 180.349 67.9696 181.35 68.2232C182.197 68.3669 182.973 69.4154 184.151 68.3238C183.943 66.2487 183.106 64.2867 181.752 62.7008ZM173.766 67.1963C172.66 65.3076 171.921 63.7708 170.427 62.751C169.643 63.5531 169.037 64.511 168.647 65.5626C168.257 66.6142 168.093 67.736 168.165 68.8552L173.766 67.1963ZM169.228 71.9863C170.398 74.1407 171.835 75.34 174.011 75.7494C174.24 74.2485 174.485 72.963 174.628 71.6632C174.793 70.2269 174.37 69.8607 173.106 70.3346C171.842 70.8086 170.721 71.3472 169.228 71.9863ZM173.537 60.8264C174.255 62.6218 174.973 64.2089 176.632 65.4943C177.292 63.7205 178.686 62.6217 178.75 60.7043C177.029 60.3138 175.238 60.3558 173.537 60.8264Z" fill="#41434B"/>
</g>
<path d="M28.3634 3.4126C26.4479 3.4126 24.895 4.96545 24.895 6.88099L24.895 9.75416L24.895 36.909V39.8386C24.895 41.7635 26.4388 43.3328 28.3635 43.3643H37.2275C38.3321 43.3643 39.2275 44.2598 39.2275 45.3643L39.2275 58.7426C39.2275 59.8472 38.3321 60.7426 37.2275 60.7426H29.8716C28.6937 60.7426 27.7388 61.6975 27.7388 62.8754C27.7388 64.0533 28.6937 65.0082 29.8716 65.0082H46.9212C47.3495 65.0082 47.6967 64.661 47.6967 64.2327V63.4416C47.6967 63.4416 47.6967 63.7518 47.6967 62.3558C47.6967 61.8267 47.8081 61.467 47.9464 61.2242C48.004 61.1232 47.8605 60.7426 47.7443 60.7426H47.0288C45.9242 60.7426 45.0288 59.8472 45.0288 58.7426V45.3643C45.0288 44.2598 45.9242 43.3643 47.0288 43.3643H53.2188H55.6076C57.5865 43.3643 59.1907 41.7601 59.1907 39.7812V39.4714V36.9659V9.81104C59.1907 8.97078 59.1907 7.22322 59.1907 7.22322C59.1907 5.15009 57.5101 3.46947 55.437 3.46947H55.2663C55.2663 3.46947 53.6325 3.4126 52.7923 3.4126L28.3634 3.4126Z" fill="#41434B"/>
<path d="M47.3554 65.1787H27.9663C27.7778 65.1787 27.625 65.3315 27.625 65.52C27.625 65.7084 27.7778 65.8612 27.9662 65.8612H47.3554C47.5439 65.8612 47.6967 65.7084 47.6967 65.52C47.6967 65.3315 47.5439 65.1787 47.3554 65.1787Z" fill="#41434B"/>
<path d="M53.7375 5.74253C46.5705 5.7755 35.8218 5.81093 30.8002 5.78326C29.4352 5.77573 28.0345 7.14265 28.0345 8.50776V38.1309C28.0345 39.2355 28.93 40.1309 30.0345 40.1309H53.744C54.8486 40.1309 55.744 39.2355 55.744 38.1309V7.74294C55.744 6.63446 54.846 5.73743 53.7375 5.74253Z" fill="white"/>
<circle cx="33.554" cy="12.6736" r="3.0625" fill="#41434B"/>
<circle cx="33.554" cy="22.7744" r="3.0625" fill="#41434B"/>
<circle cx="33.554" cy="32.8755" r="3.0625" fill="#41434B"/>
<rect x="40.0465" y="9.82788" width="13.377" height="2.73" rx="0.5" fill="#41434B"/>
<rect x="40.0465" y="13.1038" width="13.377" height="2.73" rx="0.5" fill="#41434B"/>
<rect x="40.0465" y="19.929" width="13.377" height="2.73" rx="0.5" fill="#41434B"/>
<rect x="40.0465" y="23.2048" width="13.377" height="2.73" rx="0.5" fill="#41434B"/>
<rect x="40.0465" y="30.03" width="13.377" height="2.73" rx="0.5" fill="#41434B"/>
<rect x="40.0465" y="33.3059" width="13.377" height="2.73" rx="0.5" fill="#41434B"/>
</g>
<defs>
<clipPath id="clip0_1453_14114">
<rect width="210" height="80.5" fill="white" transform="translate(0.5)"/>
</clipPath>
<clipPath id="clip1_1453_14114">
<rect width="162.581" height="46.586" fill="white" transform="translate(48.3569 33.6733)"/>
</clipPath>
</defs>
</svg>
