<svg width="211" height="95" viewBox="0 0 211 95" fill="none" xmlns="http://www.w3.org/2000/svg">
<g clip-path="url(#clip0_1453_14762)">
<path d="M67.9032 50.82H22.5161V30.1813H67.9032M77.5564 42.9394V35.6007L73.8871 17.2539H15.1774L11.5081 35.6007V42.9394H15.1774V67.7781H48.5968C56.7258 61.0039 66.8242 60.4597 73.8871 58.9717V42.9394M73.8871 6.24585H15.1774V15.6168H73.8871V6.24585Z" fill="#41434B"/>
<g clip-path="url(#clip1_1453_14762)">
<path d="M44.7826 34.6956C42.6484 34.6956 40.9022 36.8686 40.9022 39.5461C40.9022 42.2236 42.6484 44.3966 44.7826 44.3966C46.9168 44.3966 48.663 42.2236 48.663 39.5461C48.663 36.8686 46.9168 34.6956 44.7826 34.6956ZM40.7275 44.3966C38.6709 44.4937 37.0217 46.1816 37.0217 48.2771V49.9173C37.0217 50.083 37.156 50.2173 37.3217 50.2173H52.5435V48.2771C52.5435 46.1816 50.9137 44.4937 48.8377 44.3966C47.7899 45.5802 46.3542 46.3369 44.7826 46.3369C43.211 46.3369 41.7753 45.5802 40.7275 44.3966Z" fill="#41434B"/>
</g>
<path d="M48.8912 37.4349C48.7664 39.0357 46.1521 39.7175 45.2391 39.7175C42.9767 39.5411 41.587 37.8914 41.1305 37.8914C41.248 36.3832 43.378 33.836 45.6403 34.0123C47.9027 34.1887 49.0088 35.9267 48.8912 37.4349Z" fill="white"/>
<g clip-path="url(#clip2_1453_14762)">
<path fill-rule="evenodd" clip-rule="evenodd" d="M44.2873 32.413H44.3261C45.2869 32.413 46.209 32.7915 46.8926 33.4665C47.5762 34.1416 47.9663 35.0589 47.9783 36.0196L49.6282 37.3024C49.6787 37.3426 49.7202 37.3929 49.75 37.4501C49.7799 37.5074 49.7974 37.5702 49.8014 37.6346C49.8054 37.6991 49.7958 37.7636 49.7733 37.8241C49.7508 37.8846 49.7158 37.9397 49.6706 37.9858C49.6053 38.0526 49.5271 38.1055 49.4408 38.1413C49.3546 38.1772 49.2619 38.1953 49.1685 38.1944C49.068 38.1949 48.9694 38.1752 48.8694 38.1643C48.7453 38.1506 48.5421 38.1406 48.1637 38.3086C47.6779 38.5245 47.1853 38.7687 46.7357 38.9445C46.2709 39.1257 45.7897 39.2609 45.2679 39.2609C44.2526 39.2609 43.2241 38.7532 41.9198 37.4969C41.6412 37.4819 41.3629 37.4605 41.0853 37.4325C40.9726 37.4213 40.8681 37.3686 40.7921 37.2846C40.7161 37.2007 40.674 37.0915 40.674 36.9782V36.0652C40.6738 35.3376 40.891 34.6265 41.2977 34.0231C41.7044 33.4197 42.282 32.9516 42.9566 32.6787V32.6413C42.9563 32.4796 43.4132 32.413 43.4132 32.413C43.4132 32.413 44.2337 32.2605 44.2873 32.413Z" fill="#41434B"/>
</g>
<path d="M41.6471 50.3546L50.721 57.6969L48.6759 60.2244C48.6759 60.2244 46.6088 58.4348 44.7827 57.0652C42.9566 55.6957 37.0219 50.674 37.0219 50.674L37.9348 50.674L40.1133 52.2502L40.6246 51.6183L41.6471 50.3546Z" fill="white"/>
<path d="M52.7893 50.3271L56.4322 56.7673L53.9669 58.1618L49.8045 50.6739L50.324 50.5021L50.7174 51.1303L50.9404 51.3729L51.5567 51.0243L52.7893 50.3271Z" fill="white"/>
<path d="M38.3701 48.4967L39.9926 49.7716L41.615 51.0466L44.8599 53.5964L51.3496 58.6962L49.995 60.42L37.0981 50.2774C37.0499 50.2395 37.0217 50.1815 37.0217 50.1202L37.0217 49.7608L37.1903 50.0023L37.3588 49.7872L37.6959 49.357L38.3701 48.4967Z" fill="#41434B"/>
<path d="M50.312 46.5651L51.7759 49.1531L52.1419 49.8001L52.3248 50.1236L52.5436 50.2173L52.5132 50.4128C52.5097 50.435 52.5139 50.4578 52.5249 50.4774L53.2398 51.7411L56.1675 56.9171L54.4116 57.9103L48.5561 47.5583L50.312 46.5651Z" fill="#41434B"/>
<path d="M49.5762 49.761H54.5979C54.9309 49.761 55.2502 49.8946 55.4856 50.1324C55.7211 50.3702 55.8534 50.6928 55.8534 51.0291V52.1831C55.8534 52.6753 55.9669 53.1606 56.1848 53.6008L56.7774 54.7979C56.9953 55.2381 57.1088 55.7235 57.1088 56.2157V59.9059C57.1088 60.2422 56.9765 60.5648 56.7411 60.8026C56.5056 61.0404 56.1863 61.174 55.8534 61.174H48.3207C47.9878 61.174 47.6685 61.0404 47.433 60.8026C47.1976 60.5648 47.0653 60.2422 47.0653 59.9059V56.2157C47.0653 55.7235 47.1788 55.2381 47.3967 54.7979L48.3207 52.9313V51.0291C48.3207 50.6928 48.453 50.3702 48.6885 50.1324C48.9239 49.8946 49.2432 49.761 49.5762 49.761Z" fill="white"/>
<path d="M49.8728 50.4915H54.2098C54.4973 50.4915 54.7731 50.6057 54.9765 50.809C55.1798 51.0124 55.294 51.2881 55.294 51.5757V52.5624C55.294 52.9832 55.392 53.3982 55.5803 53.7745L56.092 54.7981C56.2802 55.1744 56.3782 55.5894 56.3783 56.0102V59.1654C56.3783 59.4529 56.264 59.7287 56.0607 59.932C55.8574 60.1354 55.5816 60.2496 55.294 60.2496H48.7886C48.501 60.2496 48.2252 60.1354 48.0219 59.932C47.8186 59.7287 47.7043 59.4529 47.7043 59.1654V56.0102C47.7044 55.5894 47.8024 55.1744 47.9906 54.7981L48.7886 53.2021V51.5757C48.7886 51.2881 48.9028 51.0124 49.1062 50.809C49.3095 50.6057 49.5853 50.4915 49.8728 50.4915Z" fill="#41434B"/>
<g clip-path="url(#clip3_1453_14762)">
<path d="M207.168 58.7211C207.074 59.8342 206.967 60.7606 206.916 61.6942C206.823 63.5039 206.787 65.2419 208.618 66.4627C209.897 67.3173 210.055 68.8972 210.292 70.3048C210.706 73.282 210.416 76.3149 209.444 79.1594C208.482 82.2475 206.306 85.0914 202.356 85.1273C198.988 85.1273 195.728 85.91 192.417 86.3409C190.342 86.6066 190.069 86.3983 190.399 84.2726C190.949 80.6975 190.181 77.0443 188.238 73.9936C186.294 70.9429 183.308 68.7027 179.835 67.6907C168.575 64.6745 159.354 73.9673 160.747 83.9423C161.278 87.7413 161.235 87.8634 157.645 87.9998C135.274 88.8975 112.897 88.5959 90.5196 88.718C90.2451 88.7572 89.9652 88.7294 89.7038 88.6368C89.4424 88.5443 89.2073 88.3898 89.0187 88.1866C91.1731 80.6101 89.9307 73.7518 82.6918 69.2922C77.3704 66.0174 71.7473 66.3047 66.4761 69.8236C60.8818 73.5579 59.1582 78.9799 60.731 87.7772C56.695 88.3948 52.7883 88.2225 48.9893 86.5707C47.8762 86.0824 47.9983 85.4576 48.4866 84.603C49.1329 83.4755 50.4758 83.9782 51.3233 83.3606C50.8134 81.9243 51.2371 80.0141 48.7595 79.7196C47.5961 79.5832 47.948 77.8955 47.9408 76.847C47.8866 76.3049 48.0214 75.7607 48.3224 75.3066C48.6234 74.8525 49.0721 74.5163 49.5925 74.3551C49.8223 74.2833 50.0737 74.312 50.3107 74.2474C54.1743 73.2707 54.1743 73.2707 55.8188 68.9762C54.0738 68.2581 52.3718 70.1252 50.4759 68.9762C51.9768 66.987 54.0666 65.9312 56.221 64.9833C61.6143 62.6134 67.3594 61.529 73.1333 60.5883C79.3883 59.5685 85.7224 59.2956 92.0205 58.6852C93.2054 58.5703 94.1749 58.3548 94.9649 59.8629C95.683 61.213 98.9578 60.9402 101.184 59.7121C105.579 57.2848 109.988 54.8862 114.362 52.423C115.798 51.6115 117.486 51.1662 118.556 49.7659C119.051 49.1124 119.834 49.2344 120.516 49.0477C125.903 47.7192 131.389 47.5396 136.897 47.5396C142.046 47.5396 147.188 47.5396 152.337 47.5396C159.009 47.5396 165.264 49.6079 171.49 51.6402C177.386 53.5648 183.239 55.6403 189.135 57.5649C193.494 59.0012 197.911 59.8127 202.521 58.6062C204.052 58.2211 205.658 58.2609 207.168 58.7211ZM150.169 60.0425C148.675 59.8486 148.56 60.4949 149.084 61.6942C150.815 65.6584 150.427 69.5938 148.869 73.5148C147.799 76.2294 146.154 78.5419 144.56 80.919C144.135 81.63 143.52 82.2084 142.784 82.589C142.048 82.9696 141.221 83.1373 140.395 83.0734C133.343 83.0088 126.29 83.0733 119.245 83.4755C114.47 83.7412 109.68 83.6191 104.882 83.7196C103.446 83.7196 102.793 83.3391 102.505 81.8023C101.502 76.2706 101.519 70.6022 102.556 65.0767C103.152 61.7373 103.525 61.486 106.951 61.2346C118.405 60.3656 129.931 60.8755 141.35 60.0209C143.361 59.8629 145.932 60.7822 147.246 59.5254C148.732 58.0891 147.734 55.4464 147.784 53.3422C147.856 50.7928 147.748 50.8933 145.357 50.563C139.375 49.7371 133.421 50.5199 127.454 50.6779C124.941 50.7608 122.467 51.3213 120.165 52.3296C114.563 54.7354 109.213 57.6439 103.798 60.4231C103.199 60.6851 102.672 61.0886 102.263 61.5989C101.854 62.1093 101.575 62.7112 101.45 63.3531C100.186 69.6225 99.8842 75.8991 101.299 82.1829C101.938 84.998 101.952 85.0554 104.839 84.9836C110.692 84.8543 116.545 84.6174 122.398 84.5025C128.617 84.3876 134.836 84.366 141.07 84.3086C142.276 84.3086 143.461 84.366 144.337 83.2672C149.824 76.3874 153.824 69.1414 150.082 59.9779C151.316 59.5461 152.596 59.2593 153.896 59.1232C157.084 58.5415 160.359 58.3549 163.806 57.1986C159.706 53.493 155.562 51.0154 150.111 50.9651C149.836 53.9856 149.855 57.0257 150.169 60.0425Z" fill="#41434B"/>
<path d="M63.0793 81.9315C63.1091 78.8017 64.3627 75.8079 66.5719 73.5907C68.781 71.3734 71.7703 70.109 74.9 70.0679C78.1501 70.117 81.2476 71.4549 83.5114 73.7874C85.7752 76.1199 87.02 79.256 86.972 82.5061C86.8837 85.6435 85.5683 88.6211 83.3083 90.7992C81.0484 92.9772 78.0242 94.1819 74.8856 94.1544C68.1064 94.1472 63.0147 88.6749 63.0793 81.9315ZM81.7511 86.0466C80.085 85.3931 78.3255 83.6551 76.9611 84.3445C75.3524 85.1632 76.444 87.5259 76.3291 89.2135C76.3291 89.3787 76.5804 89.5582 76.8031 89.8455C77.8401 89.5864 78.812 89.1151 79.6575 88.4612C80.503 87.8073 81.2037 86.9851 81.7152 86.0466H81.7511ZM72.8389 81.0196C71.4744 79.3391 70.8497 77.6873 69.3128 76.6532C68.5434 77.4932 67.9501 78.4788 67.5677 79.5519C67.1853 80.625 67.0218 81.7638 67.0866 82.9011L72.8389 81.0196ZM73.0185 89.7881C73.1377 89.3698 73.2005 88.9375 73.2052 88.5026C72.9754 87.0663 74.5409 85.0699 73.0185 84.244C71.8622 83.6192 70.189 84.9622 68.8317 85.6803C68.645 85.7737 68.5588 86.0466 68.3721 86.3123C69.2195 88.1148 70.8209 89.0484 72.9826 89.7809L73.0185 89.7881ZM80.6595 76.7537C79.5966 78.3049 78.3614 79.5043 77.6577 81.2565C79.5464 81.8382 81.076 82.6354 83.0868 82.6928C82.6847 80.445 82.4764 78.4629 80.6236 76.7466L80.6595 76.7537ZM77.7223 74.7286C76.0002 74.183 74.1516 74.183 72.4296 74.7286C73.3703 76.4234 73.7653 78.1398 75.4889 79.3822C76.2573 77.831 77.234 76.6461 77.6864 74.7214L77.7223 74.7286Z" fill="#41434B"/>
<path d="M187.512 82.226C187.525 83.8072 187.22 85.3748 186.615 86.8358C186.011 88.2968 185.118 89.6213 183.991 90.7306C182.865 91.84 181.526 92.7116 180.056 93.2936C178.586 93.8756 177.014 94.1561 175.433 94.1185C173.853 94.0896 172.295 93.7493 170.847 93.1172C169.399 92.4852 168.09 91.5737 166.994 90.435C165.899 89.2964 165.039 87.9529 164.464 86.4814C163.888 85.0099 163.609 83.4394 163.641 81.8597C163.747 78.7364 165.047 75.7726 167.273 73.5789C169.498 71.3852 172.481 70.1286 175.605 70.0679C177.186 70.0829 178.748 70.4093 180.202 71.0288C181.656 71.6482 182.974 72.5483 184.08 73.6776C185.186 74.8069 186.059 76.1432 186.647 77.61C187.236 79.0769 187.53 80.6455 187.512 82.226ZM182.421 86.0609C180.812 85.3427 179.548 84.7755 178.241 84.244C177.358 83.885 176.869 84.402 176.805 85.1991C176.726 86.7 176.805 88.2082 176.805 89.8671C177.969 89.7117 179.081 89.2868 180.052 88.626C181.023 87.9652 181.827 87.0869 182.399 86.0609H182.421ZM181.315 76.5958C180.13 78.1972 179.117 79.5904 177.982 81.1272C178.932 81.5332 179.911 81.8646 180.912 82.1183C181.76 82.2619 182.535 83.3104 183.713 82.2188C183.506 80.1437 182.669 78.1817 181.315 76.5958ZM173.329 81.0914C172.223 79.2026 171.483 77.6658 169.989 76.646C169.206 77.4481 168.599 78.406 168.209 79.4577C167.82 80.5093 167.655 81.631 167.727 82.7502L173.329 81.0914ZM168.79 85.8813C169.961 88.0358 171.397 89.2351 173.573 89.6444C173.803 88.1435 174.047 86.858 174.191 85.5582C174.356 84.1219 173.932 83.7557 172.668 84.2296C171.404 84.7036 170.284 85.2422 168.79 85.8813ZM173.099 74.7214C173.817 76.5168 174.535 78.1039 176.194 79.3894C176.855 77.6156 178.248 76.5168 178.313 74.5993C176.591 74.2088 174.8 74.2508 173.099 74.7214Z" fill="#41434B"/>
</g>
</g>
<defs>
<clipPath id="clip0_1453_14762">
<rect width="210" height="94.08" fill="white" transform="translate(0.5)"/>
</clipPath>
<clipPath id="clip1_1453_14762">
<rect width="15.5217" height="15.5217" fill="white" transform="translate(37.0217 34.6956)"/>
</clipPath>
<clipPath id="clip2_1453_14762">
<rect width="10.9565" height="10.9565" fill="white" transform="matrix(-1 0 0 1 50.7174 30.1304)"/>
</clipPath>
<clipPath id="clip3_1453_14762">
<rect width="162.581" height="46.586" fill="white" transform="translate(47.9193 47.5684)"/>
</clipPath>
</defs>
</svg>
