<svg width="200" height="58" viewBox="0 0 200 58" fill="none" xmlns="http://www.w3.org/2000/svg">
<g clip-path="url(#clip0_1542_6640)">
<path d="M195.901 14.3164C195.786 15.6683 195.654 16.7934 195.592 17.9273C195.477 20.1252 195.433 22.2359 197.685 23.7186C199.258 24.7565 199.452 26.6753 199.744 28.3848C200.254 32.0006 199.897 35.6842 198.701 39.1389C197.518 42.8893 194.841 46.3432 189.982 46.3868C185.839 46.3868 181.828 47.3374 177.755 47.8608C175.202 48.1835 174.866 47.9305 175.273 45.3489C175.95 41.0069 175.005 36.57 172.614 32.8649C170.223 29.1598 166.55 26.4391 162.277 25.21C148.425 21.5468 137.082 32.833 138.796 44.9477C139.45 49.5616 139.397 49.7099 134.979 49.8756C107.461 50.9658 79.9329 50.5995 52.4051 50.7478C52.0675 50.7954 51.7231 50.7616 51.4016 50.6492C51.08 50.5368 50.7908 50.3492 50.5588 50.1023C53.2091 40.9007 51.6807 32.5713 42.7757 27.155C36.2295 23.1778 29.3123 23.5267 22.8279 27.8004C15.9459 32.3358 13.8257 38.9208 15.7604 49.6051C10.7955 50.3552 5.98966 50.146 1.31631 48.1399C-0.0530132 47.5468 0.0971728 46.788 0.697906 45.7501C1.49299 44.3808 3.14501 44.9912 4.18746 44.2411C3.56022 42.4968 4.08145 40.1768 1.03361 39.8192C-0.397544 39.6535 0.0353375 37.6038 0.0265032 36.3304C-0.040189 35.672 0.125649 35.0111 0.495934 34.4596C0.866219 33.908 1.4182 33.4998 2.0584 33.304C2.3411 33.2167 2.6503 33.2516 2.94183 33.1731C7.69469 31.9869 7.69469 31.987 9.71775 26.7713C7.57101 25.8991 5.47727 28.1668 3.14501 26.7713C4.99139 24.3553 7.56217 23.0731 10.2125 21.9218C16.847 19.0436 23.9145 17.7266 31.0173 16.5841C38.712 15.3455 46.5038 15.0141 54.2515 14.2727C55.7092 14.1332 56.9018 13.8715 57.8736 15.7031C58.757 17.3428 62.7855 17.0114 65.5241 15.52C70.9307 12.572 76.355 9.65887 81.7351 6.66726C83.5019 5.68169 85.578 5.14097 86.8943 3.4402C87.5039 2.64651 88.4668 2.79478 89.3061 2.56801C95.9318 0.954461 102.681 0.736328 109.457 0.736328C115.791 0.736328 122.117 0.736328 128.451 0.736328C136.658 0.736328 144.353 3.24831 152.012 5.7166C159.265 8.05407 166.465 10.5747 173.718 12.9122C179.08 14.6565 184.513 15.6421 190.185 14.1768C192.068 13.7092 194.044 13.7575 195.901 14.3164ZM125.783 15.9212C123.945 15.6857 123.804 16.4707 124.449 17.9273C126.578 22.7417 126.101 27.5213 124.184 32.2835C122.868 35.5803 120.845 38.3888 118.883 41.2758C118.36 42.1394 117.604 42.8418 116.699 43.304C115.793 43.7663 114.776 43.97 113.759 43.8924C105.084 43.8139 96.4089 43.8923 87.7424 44.3807C81.8676 44.7034 75.9751 44.5551 70.0738 44.6772C68.3069 44.6772 67.503 44.2151 67.1496 42.3486C65.9156 35.6304 65.9366 28.746 67.2115 22.0352C67.9447 17.9796 68.4041 17.6743 72.618 17.369C86.7088 16.3137 100.888 16.9329 114.934 15.895C117.408 15.7031 120.571 16.8196 122.187 15.2932C124.016 13.5488 122.788 10.3392 122.85 7.78369C122.938 4.68742 122.806 4.80953 119.864 4.40832C112.505 3.4053 105.181 4.35602 97.84 4.5479C94.7492 4.6485 91.706 5.32924 88.8732 6.55387C81.9824 9.47571 75.4008 13.0081 68.7398 16.3835C68.0026 16.7017 67.3547 17.1917 66.8516 17.8115C66.3484 18.4313 66.0051 19.1624 65.851 19.942C64.2961 27.5562 63.9251 35.1792 65.6655 42.8109C66.4517 46.2298 66.4694 46.2995 70.0208 46.2123C77.2207 46.0553 84.4207 45.7676 91.6207 45.628C99.2712 45.4885 106.922 45.4623 114.59 45.3925C116.074 45.3925 117.532 45.4622 118.609 44.1278C125.359 35.7722 130.28 26.9718 125.677 15.8427C127.195 15.3183 128.769 14.97 130.368 14.8048C134.29 14.0983 138.319 13.8716 142.559 12.4673C137.515 7.96684 132.418 4.95774 125.712 4.89669C125.373 8.56507 125.397 12.2573 125.783 15.9212Z" fill="#868686"/>
<path d="M18.6492 42.5054C18.6858 38.7042 20.2279 35.0682 22.9455 32.3754C25.6632 29.6825 29.3405 28.1469 33.1905 28.0969C37.1886 28.1566 40.999 29.7814 43.7838 32.6143C46.5687 35.4471 48.1 39.256 48.0409 43.2032C47.9324 47.0137 46.3142 50.63 43.5341 53.2752C40.7539 55.9205 37.0337 57.3836 33.1728 57.3501C24.8332 57.3414 18.5697 50.6953 18.6492 42.5054ZM41.6184 47.5031C39.5688 46.7095 37.4044 44.5986 35.7259 45.436C33.747 46.4302 35.0898 49.2998 34.9485 51.3494C34.9485 51.55 35.2577 51.7681 35.5315 52.117C36.8072 51.8023 38.0029 51.2299 39.043 50.4357C40.0831 49.6415 40.945 48.643 41.5742 47.5031H41.6184ZM30.655 41.3978C28.9765 39.3569 28.2079 37.3508 26.3174 36.0948C25.3709 37.1151 24.6409 38.3121 24.1706 39.6153C23.7002 40.9186 23.499 42.3017 23.5787 43.6829L30.655 41.3978ZM30.8759 52.0472C31.0226 51.5393 31.0999 51.0142 31.1056 50.486C30.8229 48.7416 32.7487 46.317 30.8759 45.3139C29.4535 44.5551 27.3951 46.1861 25.7255 47.0583C25.4958 47.1717 25.3898 47.5031 25.1601 47.8259C26.2025 50.015 28.1726 51.1489 30.8317 52.0385L30.8759 52.0472ZM40.2756 36.217C38.9681 38.1009 37.4486 39.5575 36.5828 41.6856C38.9063 42.3921 40.788 43.3602 43.2616 43.43C42.7668 40.7 42.5107 38.2928 40.2314 36.2082L40.2756 36.217ZM36.6623 33.7574C34.5439 33.0948 32.2698 33.0948 30.1515 33.7574C31.3087 35.8158 31.7946 37.9003 33.9149 39.4092C34.8601 37.5253 36.0616 36.0862 36.6182 33.7487L36.6623 33.7574Z" fill="#868686"/>
<path d="M171.721 42.863C171.737 44.7834 171.362 46.6873 170.618 48.4617C169.874 50.2361 168.776 51.8447 167.39 53.192C166.004 54.5393 164.358 55.5979 162.549 56.3047C160.741 57.0115 158.807 57.3522 156.862 57.3065C154.919 57.2714 153.002 56.8581 151.22 56.0905C149.439 55.3228 147.829 54.2159 146.481 52.833C145.134 51.45 144.076 49.8183 143.368 48.0312C142.66 46.2441 142.316 44.3367 142.356 42.4182C142.487 38.6249 144.085 35.0254 146.824 32.3611C149.562 29.6968 153.23 28.1706 157.074 28.0969C159.018 28.1151 160.94 28.5116 162.729 29.2639C164.518 30.0162 166.139 31.1094 167.499 32.481C168.86 33.8525 169.933 35.4755 170.658 37.2569C171.382 39.0384 171.744 40.9435 171.721 42.863ZM165.458 47.5205C163.479 46.6483 161.924 45.9594 160.316 45.3139C159.23 44.8778 158.629 45.5058 158.549 46.4739C158.452 48.2968 158.549 50.1284 158.549 52.1431C159.982 51.9545 161.35 51.4384 162.544 50.6359C163.739 49.8334 164.728 48.7666 165.431 47.5205H165.458ZM164.097 36.0251C162.64 37.9701 161.394 39.6621 159.998 41.5286C161.166 42.0217 162.371 42.4241 163.603 42.7322C164.645 42.9066 165.599 44.18 167.048 42.8543C166.793 40.3341 165.763 37.9512 164.097 36.0251ZM154.274 41.485C152.913 39.1912 152.003 37.3246 150.166 36.0861C149.201 37.0602 148.455 38.2237 147.976 39.5009C147.497 40.7781 147.294 42.1404 147.383 43.4997L154.274 41.485ZM148.69 47.3025C150.13 49.919 151.897 51.3756 154.574 51.8727C154.857 50.0498 155.157 48.4887 155.334 46.91C155.537 45.1656 155.016 44.7208 153.461 45.2965C151.906 45.8721 150.528 46.5262 148.69 47.3025ZM153.991 33.7487C154.874 35.9292 155.758 37.8567 157.798 39.4179C158.611 37.2636 160.325 35.9291 160.405 33.6004C158.287 33.1261 156.084 33.1771 153.991 33.7487Z" fill="#868686"/>
</g>
<defs>
<clipPath id="clip0_1542_6640">
<rect width="200" height="56.5789" fill="white" transform="translate(0 0.77124)"/>
</clipPath>
</defs>
</svg>
