<svg width="46" height="94" viewBox="0 0 46 94" fill="none" xmlns="http://www.w3.org/2000/svg">
<g filter="url(#filter0_d_1572_12918)">
<path d="M23.0015 1.52442V2.11248C11.8937 2.11248 7.77985 5.19098 7.44059 6.05799C7.38279 6.20626 7.29986 6.52291 7.20185 6.99536L6.57609 6.79683C6.87263 5.90972 7.30991 5.03015 7.95576 4.49738C9.66465 3.08504 12.8311 1.52442 23.0015 1.52442Z" fill="#292B2D"/>
<path d="M23.0014 2.11248V1.52442C33.1717 1.52442 36.3357 3.08504 38.0471 4.49738C38.6929 5.03015 39.1302 5.9072 39.4268 6.79431L38.796 6.99536C38.7005 6.52291 38.6176 6.20626 38.5598 6.05799C38.2205 5.19098 34.1091 2.11248 23.0014 2.11248Z" fill="#292B2D"/>
<path d="M7.44035 6.05782C7.77961 5.19081 11.8935 2.11231 23.0012 2.11231C34.109 2.11231 38.2203 5.19081 38.5596 6.05782C38.6174 6.20609 38.7003 6.52274 38.7958 6.9952C39.2632 9.26198 40.0574 15.0847 40.0574 22.7194L40.0574 55.8893C39.7734 55.9094 39.502 55.922 39.2909 55.922C39.2632 55.9974 39.2381 56.0703 39.223 56.1406H39.1652C39.1652 49.3152 39.1652 37.9435 39.1652 34.2569C39.1652 28.8664 38.7456 12.1419 37.4614 11.1166C36.3079 13.6397 34.6392 19.5429 34.6392 24.0338C34.6392 28.5246 34.6392 37.3379 34.6392 42.9822C34.6392 45.636 35.2398 49.1166 35.9535 52.2328L35.2901 52.3836C34.9936 51.0768 34.7272 49.9007 34.5588 49.1543C34.4583 48.707 34.0059 48.4381 33.5636 48.5587C32.1136 48.9533 28.6807 49.677 23.0012 49.677C17.3192 49.677 13.8864 48.9533 12.4388 48.5587C11.9965 48.4381 11.5442 48.707 11.4411 49.1543C11.2728 49.9007 11.0064 51.0768 10.7098 52.3836L10.0489 52.2353C10.7601 49.1191 11.3632 45.636 11.3632 42.9822C11.3632 37.3379 11.3632 28.5246 11.3632 24.0338C11.3632 19.5429 9.69456 13.6397 8.54107 11.1166C7.2569 12.1419 6.83721 28.8664 6.83721 34.2569C6.83721 37.9435 6.83721 49.3152 6.83721 56.1406H6.77942C6.76434 56.0703 6.7392 55.9974 6.71156 55.922C6.50046 55.922 6.22654 55.9094 5.94508 55.8893L5.94508 22.7194C5.94508 15.0847 6.73669 9.26198 7.20161 6.9952C7.29961 6.52274 7.38255 6.20609 7.44035 6.05782ZM23.0012 4.51731C23.0012 4.51731 15.1806 4.69826 12.5368 5.77887C11.5618 6.17845 11.0566 6.75897 11.1521 8.00042C11.2878 9.77715 11.8483 16.4493 11.9488 17.0072C12.1247 17.9974 12.3861 18.7714 13.5194 18.6231C14.6553 18.4723 19.209 18.0125 23.0012 18.0125C26.7909 18.0125 31.3471 18.4723 32.4805 18.6231C33.6139 18.7714 33.8752 17.9974 34.0537 17.0072C34.1517 16.4493 34.7121 9.77715 34.8503 8.00042C34.9458 6.75897 34.4407 6.17845 33.4656 5.77887C30.8194 4.69826 23.0012 4.51731 23.0012 4.51731Z" fill="#757982"/>
<path d="M12.5369 5.77884C15.1806 4.69823 23.0013 4.51728 23.0013 4.51728C23.0013 4.51728 30.8194 4.69823 33.4657 5.77884C34.4407 6.17842 34.9459 6.75894 34.8504 8.00039C34.7121 9.77712 34.1517 16.4493 34.0537 17.0072C33.8753 17.9973 33.6139 18.7714 32.4805 18.6231C31.3472 18.4723 26.791 18.0124 23.0013 18.0124C19.2091 18.0124 14.6554 18.4723 13.5195 18.6231C12.3861 18.7714 12.1247 17.9973 11.9488 17.0072C11.8483 16.4493 11.2879 9.77712 11.1522 8.00039C11.0567 6.75894 11.5618 6.17842 12.5369 5.77884ZM24.0819 5.05759C23.431 5.02994 23.0239 5.01989 23.0113 5.01989C22.9359 5.01989 15.256 5.21089 12.7279 6.24375C11.9262 6.57045 11.6422 6.95495 11.6422 7.7139C11.6422 7.79431 11.6473 7.87724 11.6523 7.96269C11.7955 9.80225 12.3509 16.4015 12.4439 16.9192C12.6424 18.0376 12.8711 18.2009 13.4542 18.1255C14.585 17.9747 18.4853 17.5877 21.9961 17.5199C22.3353 17.5123 22.6721 17.5098 23.0013 17.5098C26.7382 17.5098 31.3044 17.9596 32.5459 18.1255C33.1314 18.2009 33.3576 18.0376 33.5586 16.9192C33.6491 16.4066 34.207 9.80476 34.3478 7.96269C34.3553 7.87724 34.3578 7.79431 34.3578 7.7139C34.3578 6.95495 34.0738 6.57045 33.2747 6.24375C31.322 5.4446 26.2934 5.15308 24.0819 5.05759Z" fill="#1E2627"/>
<path d="M23.0115 5.02001C23.0115 5.02001 23.4311 5.03007 24.082 5.05771C22.3857 11.0891 21.9962 17.52 21.9962 17.52C18.4854 17.5878 14.5852 17.9748 13.4543 18.1256C12.8713 18.201 12.6426 18.0377 12.444 16.9194C12.3511 16.4017 11.7957 9.80237 11.6524 7.96281C11.6474 7.87736 11.6424 7.79443 11.6424 7.71402C11.6424 6.95507 11.9264 6.57057 12.728 6.24387C15.2562 5.21101 22.9361 5.02253 23.0115 5.02001Z" fill="#495053"/>
<path d="M24.082 5.05771C26.2935 5.15321 31.3221 5.44472 33.2748 6.24388C34.0739 6.57057 34.3579 6.95507 34.3579 7.71402C34.3579 7.79444 34.3554 7.87737 34.3479 7.96281C34.2071 9.80488 33.6492 16.4067 33.5588 16.9194C33.3577 18.0377 33.1315 18.201 32.546 18.1256C31.3045 17.9598 26.7383 17.5099 23.0014 17.5099C22.6722 17.5099 22.3354 17.5099 21.9962 17.52C21.9962 17.52 22.3857 11.0891 24.082 5.05771Z" fill="#252F30"/>
<path d="M38.7959 6.99526L39.4266 6.79421C39.9142 8.26184 40.0147 9.75711 40.0147 9.75711C40.0147 9.75711 40.8264 14.4188 40.8264 17.4999C40.8264 20.5809 40.0574 22.7195 40.0574 22.7195C40.0574 15.0848 39.2633 9.26204 38.7959 6.99526Z" fill="#292B2D"/>
<path d="M6.57591 6.79673L7.20166 6.99526C6.73674 9.26204 5.94513 15.0848 5.94513 22.7195C5.94513 22.7195 5.17362 20.5809 5.17362 17.4999C5.17362 14.4188 5.98785 9.75711 5.98785 9.75711C5.98785 9.75711 6.08837 8.26435 6.57591 6.79673Z" fill="#292B2D"/>
<path d="M7.98581 14.0996C7.98581 14.0996 8.07126 13.1371 8.24215 13.3281C8.41555 13.5216 10.6497 21.3171 10.6497 23.7874C10.6497 26.2578 10.6497 29.5474 10.6497 30.1882C10.6497 30.829 10.617 30.9748 10.5039 31.118C10.3933 31.2638 7.44048 32.9299 7.44048 32.9299L7.98581 14.0996Z" fill="#252F30"/>
<path d="M37.7581 13.3281C37.929 13.1371 38.0145 14.0996 38.0145 14.0996L38.5598 32.9299C38.5598 32.9299 35.6095 31.2638 35.4964 31.118C35.3833 30.9748 35.3531 30.829 35.3531 30.1882C35.3531 29.5474 35.3531 26.2578 35.3531 23.7874C35.3531 21.3171 37.5873 13.5216 37.7581 13.3281Z" fill="#252F30"/>
<path d="M8.54111 11.1167C9.69461 13.6398 11.3633 19.543 11.3633 24.0339C11.3633 28.5247 11.3633 37.338 11.3633 42.9823C11.3633 45.6361 10.7601 49.1192 10.049 52.2354C9.24728 55.7512 8.30488 58.8021 7.93044 59.6867C7.22427 61.3553 6.83977 61.7398 6.83726 61.4835L6.83726 56.9474H7.21925L7.21925 58.5759C7.21925 58.5759 10.6496 48.9509 10.6496 42.0525C10.6496 35.1567 10.6496 34.835 10.6496 34.3525C10.6496 33.87 10.3128 33.8248 9.91073 33.9353C9.51116 34.0484 7.23935 35.0813 7.23935 35.0813L7.21925 56.1407H6.83726C6.83726 49.3153 6.83726 37.9437 6.83726 34.257C6.83726 28.8665 7.25694 12.1421 8.54111 11.1167ZM8.24206 13.3282C8.07117 13.1372 7.98573 14.0997 7.98573 14.0997L7.44039 32.9301C7.44039 32.9301 10.3932 31.2639 10.5038 31.1182C10.6169 30.9749 10.6496 30.8292 10.6496 30.1884C10.6496 29.5475 10.6496 26.2579 10.6496 23.7876C10.6496 21.3172 8.41546 13.5217 8.24206 13.3282Z" fill="#1C1F21"/>
<path d="M34.6393 24.0339C34.6393 19.543 36.3079 13.6398 37.4614 11.1167C38.7456 12.1421 39.1653 28.8665 39.1653 34.257C39.1653 37.9437 39.1653 49.3153 39.1653 56.1407H38.7833L38.7632 35.0813C38.7632 35.0813 36.4914 34.0484 36.0893 33.9353C35.6897 33.8248 35.353 33.8725 35.353 34.3525C35.353 34.8325 35.353 35.1567 35.353 42.0525C35.353 48.9509 38.7858 58.5759 38.7858 58.5759V56.9474H39.1653C39.1653 59.664 39.1653 61.4835 39.1653 61.4835C39.1628 61.7398 38.7758 61.3553 38.0721 59.6867C37.6977 58.8021 36.7553 55.7487 35.9536 52.2329C35.2399 49.1167 34.6393 45.6361 34.6393 42.9823C34.6393 37.338 34.6393 28.5247 34.6393 24.0339ZM38.0143 14.0997C38.0143 14.0997 37.9289 13.1372 37.758 13.3282C37.5871 13.5217 35.353 21.3172 35.353 23.7876C35.353 26.2579 35.353 29.5475 35.353 30.1884C35.353 30.8292 35.3831 30.9749 35.4962 31.1182C35.6093 31.2639 38.5596 32.9301 38.5596 32.9301L38.0143 14.0997Z" fill="#1C1F21"/>
<path d="M7.21933 56.1408L7.23943 35.0813C7.23943 35.0813 9.51124 34.0484 9.91082 33.9354C10.3129 33.8248 10.6497 33.8725 10.6497 34.3525C10.6497 34.8325 10.6497 35.1567 10.6497 42.0525C10.6497 48.9509 7.21682 58.5759 7.21682 58.5759V56.9475L7.21933 56.1408Z" fill="#252F30"/>
<path d="M38.7834 56.1408V56.9475V58.5759C38.7834 58.5759 35.3506 48.9509 35.3506 42.0525C35.3506 35.1567 35.3506 34.835 35.3506 34.3525C35.3506 33.87 35.6874 33.8248 36.0869 33.9354C36.489 34.0484 38.7608 35.0813 38.7608 35.0813L38.7809 56.1408H38.7834Z" fill="#252F30"/>
<path d="M11.4412 49.1543C11.5442 48.707 11.9966 48.4381 12.4389 48.5587C13.8864 48.9533 17.3193 49.677 23.0013 49.677C28.6808 49.677 32.1136 48.9533 33.5637 48.5587C34.006 48.4381 34.4583 48.707 34.5589 49.1543C34.7272 49.9007 34.9936 51.0768 35.2902 52.3836C35.9938 55.4847 36.8734 59.3372 37.0694 60.0836C37.3282 61.0662 37.3408 62.0513 36.4839 62.8178C36.225 63.0515 35.8857 63.2651 35.4485 63.4511C33.5712 64.2528 30.3947 65.0117 23.0013 65.0117C15.6053 65.0117 12.4288 64.2528 10.5541 63.4511C10.1168 63.2651 9.77755 63.0515 9.51871 62.8178C8.66175 62.0513 8.67432 61.0662 8.93316 60.0836C9.12918 59.3372 10.0088 55.4847 10.7099 52.3836C11.0064 51.0768 11.2728 49.9007 11.4412 49.1543ZM12.3057 49.0437C12.2253 49.0211 12.1423 49.0312 12.0695 49.0739C11.9991 49.1166 11.9514 49.1845 11.9338 49.2649C11.4588 51.3708 9.97609 57.9148 9.51871 59.8147C9.47599 59.9856 9.44081 60.1213 9.41819 60.2093C9.3252 60.5636 9.27997 60.8677 9.27997 61.1391C9.27997 61.707 9.44834 62.4333 10.7501 62.9887C12.2705 63.6396 15.1857 64.5016 22.9008 64.5091H23.0013C30.7918 64.5091 33.722 63.6421 35.2499 62.9887C36.5542 62.4333 36.7201 61.707 36.7201 61.1391C36.7201 60.8677 36.6748 60.5636 36.5819 60.2093C36.5266 60.0007 36.421 59.5533 36.2778 58.9452C35.7149 56.5352 34.6016 51.6196 34.0688 49.2649C34.0512 49.1845 34.001 49.1166 33.9306 49.0739C33.8602 49.0312 33.7773 49.0211 33.6944 49.0437C32.1363 49.4684 28.6733 50.1796 23.0013 50.1796C22.3705 50.1796 21.7674 50.1696 21.1919 50.1545C16.5804 50.0238 13.6929 49.4207 12.3057 49.0437Z" fill="#1E2627"/>
<path d="M12.0695 49.0739C12.1423 49.0312 12.2253 49.0211 12.3057 49.0437C13.6929 49.4207 16.5804 50.0238 21.1919 50.1545C21.114 52.7103 21.2421 55.0449 21.4583 57.0528C13.909 57.4474 9.5187 59.8147 9.5187 59.8147C9.97608 57.9148 11.4588 51.3708 11.9338 49.2649C11.9513 49.1844 11.9991 49.1166 12.0695 49.0739Z" fill="#495053"/>
<path d="M33.6944 49.0439C33.7773 49.0212 33.8603 49.0313 33.9306 49.074C34.001 49.1167 34.0513 49.1846 34.0689 49.265C34.6016 51.6197 35.7149 56.5353 36.2778 58.9453C36.2778 58.9453 31.4352 56.8746 22.9661 57.0027C22.451 57.0103 21.9458 57.0278 21.4583 57.053C21.2422 55.045 21.114 52.7104 21.1919 50.1546C21.7674 50.1697 22.3706 50.1798 23.0013 50.1798C28.6733 50.1798 32.1363 49.4686 33.6944 49.0439Z" fill="#252F30"/>
<path d="M35.2901 52.3836L35.9536 52.2328C36.7552 55.7486 37.6976 58.8019 38.0721 59.6865C38.7757 61.3552 39.1627 61.7397 39.1653 61.4834C39.1653 61.4834 39.1653 59.6639 39.1653 56.9473H39.2105C39.2457 57.0931 39.2909 57.1735 39.2909 57.1735C39.2909 57.1735 39.6402 57.1609 40.0574 57.1358V62.4986C40.0574 62.4986 40.4419 63.431 40.5399 64.1045C40.6279 64.7328 40.9244 74.3452 39.9217 79.2055L39.4191 79.1024C39.3738 79.0848 39.3311 79.0673 39.2909 79.0572C39.2909 79.0472 39.2934 79.0396 39.2934 79.0321C39.3563 78.6476 39.2281 77.8987 39.0798 77.856C38.9793 77.8283 37.0116 79.1879 35.4133 80.3389L35.1142 79.6603C36.1094 78.9491 37.0015 78.3133 37.0015 78.2882C37.0015 78.2405 37.4338 65.1524 37.4036 64.9589C37.3709 64.7654 36.2652 63.6597 36.2652 63.6597L36.1848 63.6195C36.4336 63.1495 36.4838 62.8178 36.4838 62.8178C37.3408 62.0513 37.3282 61.0662 37.0694 60.0836C36.8733 59.3372 35.9938 55.4847 35.2901 52.3836Z" fill="#757982"/>
<path d="M10.0491 52.2353L10.71 52.3836C10.0089 55.4847 9.12929 59.3372 8.93327 60.0836C8.67442 61.0662 8.66186 62.0513 9.51881 62.8178C9.51881 62.8178 9.56907 63.1495 9.81787 63.6195L9.73745 63.6597C9.73745 63.6597 8.6317 64.7654 8.59903 64.9589C8.56636 65.1524 9.00112 78.2405 9.00112 78.2882C9.00112 78.3133 9.89326 78.9491 10.8884 79.6603L10.5894 80.3389C8.99107 79.1879 7.02334 77.8283 6.92282 77.856C6.77203 77.8987 6.64387 78.6476 6.70921 79.0321C6.70921 79.0396 6.70921 79.0472 6.70921 79.0572C6.669 79.0673 6.62628 79.0848 6.58104 79.1024L6.07843 79.2055C5.07572 74.3452 5.37226 64.7328 5.46022 64.1045C5.55572 63.431 5.94273 62.4986 5.94273 62.4986L5.94273 57.1358C6.35989 57.1609 6.70921 57.1735 6.70921 57.1735C6.70921 57.1735 6.75444 57.093 6.78963 56.9473H6.83486V61.4834C6.83486 61.7397 7.22187 61.3552 7.92804 59.6865C8.30249 58.8019 9.24489 55.7511 10.0466 52.2353H10.0491Z" fill="#757982"/>
<path d="M4.06554 55.9948C4.04795 55.8415 4.20879 55.6254 4.52292 55.7133C4.73402 55.7737 5.35977 55.8465 5.94531 55.8893V57.1357C5.44521 57.1056 4.85213 57.0553 4.65109 56.9824C4.28167 56.8442 4.08062 56.1481 4.06554 55.9948Z" fill="#3F4749"/>
<path d="M41.4799 55.7133C41.7915 55.6254 41.9523 55.8415 41.9373 55.9948C41.9222 56.1481 41.7211 56.8442 41.3517 56.9824C41.1507 57.0553 40.5576 57.1056 40.0575 57.1357V55.8893C40.6405 55.8465 41.2688 55.7737 41.4799 55.7133Z" fill="#2E3135"/>
<path d="M5.94509 57.1359V55.8894C6.22655 55.9095 6.50048 55.9221 6.71158 55.9221C6.73922 55.9975 6.76435 56.0703 6.77943 56.1407H6.61859V56.9474H6.79199C6.75681 57.0932 6.71158 57.1736 6.71158 57.1736C6.71158 57.1736 6.36226 57.161 5.94509 57.1359Z" fill="#3F4749"/>
<path d="M40.0574 55.8894V57.1359C39.6402 57.161 39.2909 57.1736 39.2909 57.1736C39.2909 57.1736 39.2457 57.0932 39.2105 56.9474H39.3839V56.1407H39.223C39.2381 56.0703 39.2632 55.9975 39.2909 55.9221C39.502 55.9221 39.7734 55.9095 40.0574 55.8894Z" fill="#2E3135"/>
<path d="M39.2232 56.1406H39.384V56.9473H39.2106C39.1855 56.8493 39.1654 56.7211 39.1654 56.5703C39.1654 56.4447 39.1805 56.2989 39.2232 56.1406Z" fill="#2E3135"/>
<path d="M39.1653 56.1406H39.2231C39.1804 56.2989 39.1653 56.4447 39.1653 56.5703V56.1406Z" fill="#252F30"/>
<path d="M38.7833 56.1406H39.1653V56.5703C39.1653 56.6985 39.1653 56.8241 39.1653 56.9473H38.7833V56.1406Z" fill="#1C1F21"/>
<path d="M6.83725 56.1406H7.21924V56.9473H6.83725V56.5703C6.83725 56.4296 6.83725 56.2863 6.83725 56.1406Z" fill="#1C1F21"/>
<path d="M6.7796 56.1406H6.8374V56.5703C6.8374 56.4447 6.82233 56.2989 6.7796 56.1406Z" fill="#252F30"/>
<path d="M6.61877 56.1406H6.7796C6.82233 56.2989 6.8374 56.4447 6.8374 56.5703C6.8374 56.7211 6.8173 56.8493 6.79217 56.9473H6.61877V56.1406Z" fill="#3F4749"/>
<path d="M6.8374 56.5703V56.9473H6.79217C6.8173 56.8493 6.8374 56.7211 6.8374 56.5703Z" fill="#252F30"/>
<path d="M39.1655 56.9473V56.5703C39.1655 56.7211 39.1856 56.8493 39.2107 56.9473H39.1655Z" fill="#252F30"/>
<path d="M22.9662 57.0028C31.4352 56.8746 36.2779 58.9454 36.2779 58.9454C36.4212 59.5535 36.5267 60.0008 36.582 60.2094C36.675 60.5638 36.7202 60.8679 36.7202 61.1393C36.7202 61.7072 36.5544 62.4335 35.2501 62.9889C33.7221 63.6423 30.7919 64.5093 23.0014 64.5093H22.9009C22.9009 64.5093 21.951 61.6243 21.4584 57.053C21.9459 57.0279 22.4511 57.0103 22.9662 57.0028Z" fill="#384547"/>
<path d="M9.51883 59.8149C9.51883 59.8149 13.9091 57.4476 21.4584 57.053C21.9509 61.6243 22.9009 64.5093 22.9009 64.5093C15.1858 64.5017 12.2706 63.6398 10.7502 62.9889C9.44846 62.4335 9.28009 61.7072 9.28009 61.1393C9.28009 60.8679 9.32532 60.5638 9.41831 60.2094C9.44092 60.1215 9.47611 59.9858 9.51883 59.8149Z" fill="#455056"/>
<path d="M9.51874 62.8179C9.77758 63.0516 10.1168 63.2652 10.5541 63.4512C12.4289 64.2529 15.6054 65.0118 23.0013 65.0118C30.3947 65.0118 33.5712 64.2529 35.4485 63.4512C35.8858 63.2652 36.225 63.0516 36.4839 62.8179C36.4839 62.8179 36.4336 63.1496 36.1848 63.6196C35.7978 64.3484 34.9283 65.4089 33.0159 66.0723C29.872 67.163 24.8786 67.0976 23.0013 67.0976C21.1241 67.0976 16.1306 67.163 12.9868 66.0723C11.0743 65.4089 10.2048 64.3484 9.81779 63.6196C9.569 63.1496 9.51874 62.8179 9.51874 62.8179Z" fill="#1C1F21"/>
<path d="M9.73747 63.6598L9.81789 63.6196C10.2049 64.3484 11.0744 65.4089 12.9869 66.0724C16.1307 67.163 21.1242 67.0977 23.0014 67.0977C24.8787 67.0977 29.8721 67.163 33.016 66.0724C34.9284 65.4089 35.7979 64.3484 36.1849 63.6196L36.2653 63.6598C36.2653 63.6598 37.3711 64.7656 37.4038 64.9591C37.4339 65.1526 37.0017 78.2406 37.0017 78.2884C37.0017 78.3135 36.1095 78.9493 35.1144 79.6605C34.1192 80.3692 33.0235 81.1482 32.6164 81.4599C31.8047 82.0806 29.666 83.4929 28.0627 83.4929H23.0014C23.0014 83.4929 19.5434 83.4929 17.9401 83.4929C16.3368 83.4929 14.1982 82.0806 13.3839 81.4599C12.9793 81.1482 11.8836 80.3692 10.8885 79.6605C9.89328 78.9493 9.00115 78.3135 9.00115 78.2884C9.00115 78.2406 8.56639 65.1526 8.59905 64.9591C8.63173 64.7656 9.73747 63.6598 9.73747 63.6598Z" fill="#808389"/>
<path d="M35.4133 80.3389C37.0116 79.1879 38.9793 77.8284 39.0798 77.856C39.2281 77.8987 39.3563 78.6476 39.2935 79.0321C39.2935 79.0396 39.2909 79.0472 39.2909 79.0572C38.7582 78.9039 38.7155 79.4769 37.1775 80.8491C35.5289 82.3242 33.7496 82.9952 33.1943 83.3571C32.865 83.5732 32.7243 83.9502 32.6615 84.2216C32.2217 84.39 31.7518 84.5558 31.2517 84.7217C31.2517 84.7217 32.5333 82.5403 33.6039 81.6834C33.9532 81.4044 34.6393 80.8968 35.4133 80.3389Z" fill="#E8E8E8"/>
<path d="M6.92279 77.856C7.02331 77.8284 8.99104 79.1879 10.5893 80.3389C11.3634 80.8968 12.0494 81.4044 12.3988 81.6834C13.4668 82.5403 14.751 84.7217 14.751 84.7217C14.2484 84.5558 13.7784 84.39 13.3386 84.2216C13.2783 83.9502 13.1351 83.5732 12.8059 83.3571C12.2505 82.9952 10.4737 82.3242 8.82266 80.8491C7.28718 79.4769 7.24446 78.9039 6.71169 79.0572C6.71169 79.0472 6.71169 79.0396 6.71169 79.0321C6.64635 78.6476 6.77452 77.8987 6.9253 77.856H6.92279Z" fill="#E8E8E8"/>
<path d="M6.71168 79.0573C7.24445 78.904 7.28717 79.477 8.82265 80.8492C10.4737 82.3243 12.2505 82.9953 12.8059 83.3572C13.1351 83.5733 13.2783 83.9503 13.3386 84.2217C7.14393 81.8745 6.77953 79.4921 6.71168 79.0573Z" fill="#3F4749"/>
<path d="M37.1775 80.8492C38.7155 79.477 38.7582 78.904 39.291 79.0573C39.2206 79.4921 38.8588 81.877 32.6616 84.2217C32.7244 83.9503 32.8651 83.5733 33.1943 83.3572C33.7497 82.9953 35.529 82.3243 37.1775 80.8492Z" fill="#ABB1B8"/>
<path d="M32.6616 84.2216C38.8589 81.8769 39.2207 79.492 39.2911 79.0573C39.3313 79.0673 39.374 79.0849 39.4193 79.1025L39.9219 79.2055C39.849 79.5599 39.7711 79.8891 39.6831 80.1882C38.399 84.5835 33.6191 86.4758 29.5781 86.4758H23.0014C23.0014 86.4758 20.4658 86.4758 16.4247 86.4758C12.3837 86.4758 7.60139 84.5835 6.31973 80.1882C6.23177 79.8891 6.15387 79.5599 6.08099 79.2055L6.5836 79.1025C6.62884 79.0849 6.67156 79.0673 6.71177 79.0573C6.77962 79.492 7.14402 81.8744 13.3387 84.2216C13.7785 84.39 14.2484 84.5559 14.7511 84.7217C14.7511 84.7217 13.4669 82.5404 12.3988 81.6834C12.0495 81.4045 11.3634 80.8968 10.5894 80.3389L10.8885 79.6604C11.8836 80.3691 12.9793 81.1481 13.3839 81.4598C14.1982 82.0805 16.3368 83.4928 17.9401 83.4928H23.0014C23.0014 83.4928 26.4569 83.4928 28.0627 83.4928C29.6686 83.4928 31.8047 82.0805 32.6164 81.4598C33.0235 81.1481 34.1192 80.3691 35.1144 79.6604L35.4134 80.3389C34.6394 80.8968 33.9534 81.4045 33.604 81.6834C32.5335 82.5404 31.2518 84.7217 31.2518 84.7217C31.7519 84.5559 32.2219 84.39 32.6616 84.2216ZM18.8624 84.2467C17.1133 84.2467 15.9422 83.7969 15.9598 83.9402C15.9749 84.0859 16.4072 84.3422 17.5305 84.8398C18.6538 85.3374 20.9307 85.1439 23.0014 85.1439C25.0722 85.1439 27.349 85.3374 28.4699 84.8398C29.5932 84.3422 30.028 84.0859 30.043 83.9402C30.0581 83.7969 28.887 84.2467 27.1404 84.2467H23.0014C23.0014 84.2467 20.6115 84.2467 18.8624 84.2467Z" fill="#2A2E2F"/>
<path d="M15.9596 83.9401C15.942 83.7969 17.1131 84.2467 18.8622 84.2467H23.0012C23.0012 84.2467 25.3911 84.2467 27.1402 84.2467C28.8893 84.2467 30.0579 83.7969 30.0428 83.9401C30.0277 84.0859 29.593 84.3422 28.4696 84.8398C27.3488 85.3374 25.0695 85.1439 23.0012 85.1439C20.933 85.1439 18.6536 85.3374 17.5303 84.8398C16.407 84.3422 15.9747 84.0859 15.9596 83.9401Z" fill="#1C1F21"/>
</g>
<defs>
<filter id="filter0_d_1572_12918" x="0.064209" y="0.524414" width="45.874" height="92.9514" filterUnits="userSpaceOnUse" color-interpolation-filters="sRGB">
<feFlood flood-opacity="0" result="BackgroundImageFix"/>
<feColorMatrix in="SourceAlpha" type="matrix" values="0 0 0 0 0 0 0 0 0 0 0 0 0 0 0 0 0 0 127 0" result="hardAlpha"/>
<feOffset dy="3"/>
<feGaussianBlur stdDeviation="2"/>
<feComposite in2="hardAlpha" operator="out"/>
<feColorMatrix type="matrix" values="0 0 0 0 0 0 0 0 0 0 0 0 0 0 0 0 0 0 0.22 0"/>
<feBlend mode="normal" in2="BackgroundImageFix" result="effect1_dropShadow_1572_12918"/>
<feBlend mode="normal" in="SourceGraphic" in2="effect1_dropShadow_1572_12918" result="shape"/>
</filter>
</defs>
</svg>
